ISO-10303-21;
HEADER;
/* Generated by software containing ST-Developer
 * from STEP Tools, Inc. (www.steptools.com) 
 */

FILE_DESCRIPTION(
/* description */ (''),
/* implementation_level */ '2;1');

FILE_NAME(
/* name */ 'Bottom case.step',
/* time_stamp */ '2026-09-29T23:54:28+05:30',
/* author */ (''),
/* organization */ (''),
/* preprocessor_version */ 'ST-DEVELOPER v20.2',
/* originating_system */ 'Autodesk Translation Framework v15.15.0.0',
/* authorisation */ '');

FILE_SCHEMA (('AUTOMOTIVE_DESIGN { 1 0 10303 214 3 1 1 }'));
ENDSEC;

DATA;
#10=MECHANICAL_DESIGN_GEOMETRIC_PRESENTATION_REPRESENTATION('',(#13),#929);
#11=SHAPE_REPRESENTATION_RELATIONSHIP('SRR','None',#936,#12);
#12=ADVANCED_BREP_SHAPE_REPRESENTATION('',(#14),#928);
#13=STYLED_ITEM('',(#945),#14);
#14=MANIFOLD_SOLID_BREP('Body1',#553);
#15=FACE_BOUND('',#90,.T.);
#16=CYLINDRICAL_SURFACE('',#571,2.);
#17=CYLINDRICAL_SURFACE('',#582,2.);
#18=CYLINDRICAL_SURFACE('',#588,2.);
#19=CYLINDRICAL_SURFACE('',#590,2.);
#20=CYLINDRICAL_SURFACE('',#599,2.);
#21=CYLINDRICAL_SURFACE('',#602,2.);
#22=CYLINDRICAL_SURFACE('',#605,2.);
#23=CYLINDRICAL_SURFACE('',#609,2.);
#24=CIRCLE('',#570,2.);
#25=CIRCLE('',#572,2.);
#26=CIRCLE('',#576,2.);
#27=CIRCLE('',#581,2.);
#28=CIRCLE('',#583,2.);
#29=CIRCLE('',#587,2.);
#30=CIRCLE('',#589,2.);
#31=CIRCLE('',#591,2.);
#32=CIRCLE('',#592,2.);
#33=CIRCLE('',#595,2.);
#34=CIRCLE('',#596,2.);
#35=CIRCLE('',#597,2.);
#36=CIRCLE('',#598,2.);
#37=CIRCLE('',#600,2.);
#38=CIRCLE('',#603,2.);
#39=CIRCLE('',#606,2.);
#40=FACE_OUTER_BOUND('',#71,.T.);
#41=FACE_OUTER_BOUND('',#72,.T.);
#42=FACE_OUTER_BOUND('',#73,.T.);
#43=FACE_OUTER_BOUND('',#74,.T.);
#44=FACE_OUTER_BOUND('',#75,.T.);
#45=FACE_OUTER_BOUND('',#76,.T.);
#46=FACE_OUTER_BOUND('',#77,.T.);
#47=FACE_OUTER_BOUND('',#78,.T.);
#48=FACE_OUTER_BOUND('',#79,.T.);
#49=FACE_OUTER_BOUND('',#80,.T.);
#50=FACE_OUTER_BOUND('',#81,.T.);
#51=FACE_OUTER_BOUND('',#82,.T.);
#52=FACE_OUTER_BOUND('',#83,.T.);
#53=FACE_OUTER_BOUND('',#84,.T.);
#54=FACE_OUTER_BOUND('',#85,.T.);
#55=FACE_OUTER_BOUND('',#86,.T.);
#56=FACE_OUTER_BOUND('',#87,.T.);
#57=FACE_OUTER_BOUND('',#88,.T.);
#58=FACE_OUTER_BOUND('',#89,.T.);
#59=FACE_OUTER_BOUND('',#91,.T.);
#60=FACE_OUTER_BOUND('',#92,.T.);
#61=FACE_OUTER_BOUND('',#93,.T.);
#62=FACE_OUTER_BOUND('',#94,.T.);
#63=FACE_OUTER_BOUND('',#95,.T.);
#64=FACE_OUTER_BOUND('',#96,.T.);
#65=FACE_OUTER_BOUND('',#97,.T.);
#66=FACE_OUTER_BOUND('',#98,.T.);
#67=FACE_OUTER_BOUND('',#99,.T.);
#68=FACE_OUTER_BOUND('',#100,.T.);
#69=FACE_OUTER_BOUND('',#101,.T.);
#70=FACE_OUTER_BOUND('',#102,.T.);
#71=EDGE_LOOP('',(#347,#348,#349,#350));
#72=EDGE_LOOP('',(#351,#352,#353,#354));
#73=EDGE_LOOP('',(#355,#356,#357));
#74=EDGE_LOOP('',(#358,#359,#360,#361));
#75=EDGE_LOOP('',(#362,#363,#364,#365));
#76=EDGE_LOOP('',(#366,#367,#368,#369));
#77=EDGE_LOOP('',(#370,#371,#372));
#78=EDGE_LOOP('',(#373,#374,#375,#376,#377,#378,#379,#380,#381,#382,#383,
#384));
#79=EDGE_LOOP('',(#385,#386,#387,#388));
#80=EDGE_LOOP('',(#389,#390,#391,#392));
#81=EDGE_LOOP('',(#393,#394,#395));
#82=EDGE_LOOP('',(#396,#397,#398,#399));
#83=EDGE_LOOP('',(#400,#401,#402,#403));
#84=EDGE_LOOP('',(#404,#405,#406,#407));
#85=EDGE_LOOP('',(#408,#409,#410));
#86=EDGE_LOOP('',(#411,#412,#413,#414));
#87=EDGE_LOOP('',(#415,#416,#417,#418));
#88=EDGE_LOOP('',(#419,#420,#421,#422));
#89=EDGE_LOOP('',(#423,#424,#425,#426,#427,#428,#429,#430));
#90=EDGE_LOOP('',(#431,#432,#433,#434,#435,#436,#437,#438));
#91=EDGE_LOOP('',(#439,#440,#441,#442));
#92=EDGE_LOOP('',(#443,#444,#445,#446));
#93=EDGE_LOOP('',(#447,#448,#449,#450));
#94=EDGE_LOOP('',(#451,#452,#453,#454));
#95=EDGE_LOOP('',(#455,#456,#457,#458));
#96=EDGE_LOOP('',(#459,#460,#461,#462));
#97=EDGE_LOOP('',(#463,#464,#465,#466,#467,#468));
#98=EDGE_LOOP('',(#469,#470,#471,#472));
#99=EDGE_LOOP('',(#473,#474,#475,#476,#477,#478));
#100=EDGE_LOOP('',(#479,#480,#481,#482,#483,#484));
#101=EDGE_LOOP('',(#485,#486,#487,#488,#489,#490));
#102=EDGE_LOOP('',(#491,#492,#493,#494,#495,#496,#497,#498));
#103=LINE('',#774,#163);
#104=LINE('',#776,#164);
#105=LINE('',#778,#165);
#106=LINE('',#779,#166);
#107=LINE('',#782,#167);
#108=LINE('',#784,#168);
#109=LINE('',#785,#169);
#110=LINE('',#790,#170);
#111=LINE('',#793,#171);
#112=LINE('',#797,#172);
#113=LINE('',#799,#173);
#114=LINE('',#801,#174);
#115=LINE('',#802,#175);
#116=LINE('',#805,#176);
#117=LINE('',#807,#177);
#118=LINE('',#808,#178);
#119=LINE('',#813,#179);
#120=LINE('',#815,#180);
#121=LINE('',#817,#181);
#122=LINE('',#818,#182);
#123=LINE('',#820,#183);
#124=LINE('',#822,#184);
#125=LINE('',#824,#185);
#126=LINE('',#825,#186);
#127=LINE('',#828,#187);
#128=LINE('',#830,#188);
#129=LINE('',#831,#189);
#130=LINE('',#834,#190);
#131=LINE('',#835,#191);
#132=LINE('',#840,#192);
#133=LINE('',#843,#193);
#134=LINE('',#846,#194);
#135=LINE('',#848,#195);
#136=LINE('',#849,#196);
#137=LINE('',#852,#197);
#138=LINE('',#853,#198);
#139=LINE('',#858,#199);
#140=LINE('',#861,#200);
#141=LINE('',#867,#201);
#142=LINE('',#870,#202);
#143=LINE('',#873,#203);
#144=LINE('',#875,#204);
#145=LINE('',#876,#205);
#146=LINE('',#879,#206);
#147=LINE('',#883,#207);
#148=LINE('',#887,#208);
#149=LINE('',#890,#209);
#150=LINE('',#891,#210);
#151=LINE('',#892,#211);
#152=LINE('',#894,#212);
#153=LINE('',#898,#213);
#154=LINE('',#902,#214);
#155=LINE('',#903,#215);
#156=LINE('',#906,#216);
#157=LINE('',#910,#217);
#158=LINE('',#911,#218);
#159=LINE('',#914,#219);
#160=LINE('',#917,#220);
#161=LINE('',#920,#221);
#162=LINE('',#921,#222);
#163=VECTOR('',#618,10.);
#164=VECTOR('',#619,10.);
#165=VECTOR('',#620,10.);
#166=VECTOR('',#621,10.);
#167=VECTOR('',#624,10.);
#168=VECTOR('',#625,10.);
#169=VECTOR('',#626,10.);
#170=VECTOR('',#633,10.);
#171=VECTOR('',#636,10.);
#172=VECTOR('',#639,10.);
#173=VECTOR('',#640,10.);
#174=VECTOR('',#641,10.);
#175=VECTOR('',#642,10.);
#176=VECTOR('',#645,10.);
#177=VECTOR('',#646,10.);
#178=VECTOR('',#647,10.);
#179=VECTOR('',#654,10.);
#180=VECTOR('',#655,10.);
#181=VECTOR('',#656,10.);
#182=VECTOR('',#657,10.);
#183=VECTOR('',#658,10.);
#184=VECTOR('',#659,10.);
#185=VECTOR('',#660,10.);
#186=VECTOR('',#661,10.);
#187=VECTOR('',#664,10.);
#188=VECTOR('',#665,10.);
#189=VECTOR('',#666,10.);
#190=VECTOR('',#669,10.);
#191=VECTOR('',#670,10.);
#192=VECTOR('',#677,10.);
#193=VECTOR('',#680,10.);
#194=VECTOR('',#683,10.);
#195=VECTOR('',#684,10.);
#196=VECTOR('',#685,10.);
#197=VECTOR('',#688,10.);
#198=VECTOR('',#689,10.);
#199=VECTOR('',#696,10.);
#200=VECTOR('',#699,10.);
#201=VECTOR('',#704,10.);
#202=VECTOR('',#707,10.);
#203=VECTOR('',#710,10.);
#204=VECTOR('',#711,10.);
#205=VECTOR('',#712,10.);
#206=VECTOR('',#715,10.);
#207=VECTOR('',#718,10.);
#208=VECTOR('',#721,10.);
#209=VECTOR('',#724,10.);
#210=VECTOR('',#725,10.);
#211=VECTOR('',#726,10.);
#212=VECTOR('',#727,10.);
#213=VECTOR('',#732,10.);
#214=VECTOR('',#737,10.);
#215=VECTOR('',#738,10.);
#216=VECTOR('',#741,10.);
#217=VECTOR('',#746,10.);
#218=VECTOR('',#747,10.);
#219=VECTOR('',#750,10.);
#220=VECTOR('',#755,10.);
#221=VECTOR('',#760,10.);
#222=VECTOR('',#761,10.);
#223=VERTEX_POINT('',#772);
#224=VERTEX_POINT('',#773);
#225=VERTEX_POINT('',#775);
#226=VERTEX_POINT('',#777);
#227=VERTEX_POINT('',#781);
#228=VERTEX_POINT('',#783);
#229=VERTEX_POINT('',#789);
#230=VERTEX_POINT('',#791);
#231=VERTEX_POINT('',#795);
#232=VERTEX_POINT('',#796);
#233=VERTEX_POINT('',#798);
#234=VERTEX_POINT('',#800);
#235=VERTEX_POINT('',#804);
#236=VERTEX_POINT('',#806);
#237=VERTEX_POINT('',#812);
#238=VERTEX_POINT('',#814);
#239=VERTEX_POINT('',#816);
#240=VERTEX_POINT('',#819);
#241=VERTEX_POINT('',#821);
#242=VERTEX_POINT('',#823);
#243=VERTEX_POINT('',#827);
#244=VERTEX_POINT('',#829);
#245=VERTEX_POINT('',#833);
#246=VERTEX_POINT('',#839);
#247=VERTEX_POINT('',#841);
#248=VERTEX_POINT('',#845);
#249=VERTEX_POINT('',#847);
#250=VERTEX_POINT('',#851);
#251=VERTEX_POINT('',#857);
#252=VERTEX_POINT('',#859);
#253=VERTEX_POINT('',#863);
#254=VERTEX_POINT('',#864);
#255=VERTEX_POINT('',#866);
#256=VERTEX_POINT('',#868);
#257=VERTEX_POINT('',#872);
#258=VERTEX_POINT('',#874);
#259=VERTEX_POINT('',#878);
#260=VERTEX_POINT('',#880);
#261=VERTEX_POINT('',#882);
#262=VERTEX_POINT('',#884);
#263=VERTEX_POINT('',#886);
#264=VERTEX_POINT('',#889);
#265=VERTEX_POINT('',#893);
#266=VERTEX_POINT('',#897);
#267=VERTEX_POINT('',#901);
#268=VERTEX_POINT('',#905);
#269=VERTEX_POINT('',#909);
#270=VERTEX_POINT('',#913);
#271=EDGE_CURVE('',#223,#224,#103,.T.);
#272=EDGE_CURVE('',#223,#225,#104,.T.);
#273=EDGE_CURVE('',#226,#225,#105,.T.);
#274=EDGE_CURVE('',#224,#226,#106,.T.);
#275=EDGE_CURVE('',#224,#227,#107,.T.);
#276=EDGE_CURVE('',#228,#226,#108,.T.);
#277=EDGE_CURVE('',#228,#227,#109,.T.);
#278=EDGE_CURVE('',#228,#225,#24,.T.);
#279=EDGE_CURVE('',#225,#229,#110,.T.);
#280=EDGE_CURVE('',#229,#230,#25,.T.);
#281=EDGE_CURVE('',#230,#228,#111,.T.);
#282=EDGE_CURVE('',#231,#232,#112,.T.);
#283=EDGE_CURVE('',#231,#233,#113,.T.);
#284=EDGE_CURVE('',#234,#233,#114,.T.);
#285=EDGE_CURVE('',#232,#234,#115,.T.);
#286=EDGE_CURVE('',#232,#235,#116,.T.);
#287=EDGE_CURVE('',#236,#234,#117,.T.);
#288=EDGE_CURVE('',#236,#235,#118,.T.);
#289=EDGE_CURVE('',#236,#233,#26,.T.);
#290=EDGE_CURVE('',#227,#237,#119,.T.);
#291=EDGE_CURVE('',#237,#238,#120,.T.);
#292=EDGE_CURVE('',#238,#239,#121,.T.);
#293=EDGE_CURVE('',#239,#231,#122,.T.);
#294=EDGE_CURVE('',#235,#240,#123,.T.);
#295=EDGE_CURVE('',#240,#241,#124,.T.);
#296=EDGE_CURVE('',#241,#242,#125,.T.);
#297=EDGE_CURVE('',#242,#223,#126,.T.);
#298=EDGE_CURVE('',#241,#243,#127,.T.);
#299=EDGE_CURVE('',#244,#243,#128,.T.);
#300=EDGE_CURVE('',#244,#242,#129,.T.);
#301=EDGE_CURVE('',#240,#245,#130,.T.);
#302=EDGE_CURVE('',#243,#245,#131,.T.);
#303=EDGE_CURVE('',#244,#245,#27,.T.);
#304=EDGE_CURVE('',#245,#246,#132,.T.);
#305=EDGE_CURVE('',#246,#247,#28,.T.);
#306=EDGE_CURVE('',#247,#244,#133,.T.);
#307=EDGE_CURVE('',#238,#248,#134,.T.);
#308=EDGE_CURVE('',#249,#248,#135,.T.);
#309=EDGE_CURVE('',#249,#239,#136,.T.);
#310=EDGE_CURVE('',#237,#250,#137,.T.);
#311=EDGE_CURVE('',#248,#250,#138,.T.);
#312=EDGE_CURVE('',#249,#250,#29,.T.);
#313=EDGE_CURVE('',#250,#251,#139,.T.);
#314=EDGE_CURVE('',#251,#252,#30,.T.);
#315=EDGE_CURVE('',#252,#249,#140,.T.);
#316=EDGE_CURVE('',#253,#254,#31,.T.);
#317=EDGE_CURVE('',#254,#255,#141,.T.);
#318=EDGE_CURVE('',#255,#256,#32,.T.);
#319=EDGE_CURVE('',#256,#253,#142,.T.);
#320=EDGE_CURVE('',#257,#254,#143,.T.);
#321=EDGE_CURVE('',#258,#257,#144,.T.);
#322=EDGE_CURVE('',#255,#258,#145,.T.);
#323=EDGE_CURVE('',#253,#259,#146,.T.);
#324=EDGE_CURVE('',#260,#259,#33,.T.);
#325=EDGE_CURVE('',#260,#261,#147,.T.);
#326=EDGE_CURVE('',#262,#261,#34,.T.);
#327=EDGE_CURVE('',#262,#263,#148,.T.);
#328=EDGE_CURVE('',#257,#263,#35,.T.);
#329=EDGE_CURVE('',#264,#252,#149,.T.);
#330=EDGE_CURVE('',#251,#230,#150,.T.);
#331=EDGE_CURVE('',#229,#247,#151,.T.);
#332=EDGE_CURVE('',#246,#265,#152,.T.);
#333=EDGE_CURVE('',#264,#265,#36,.T.);
#334=EDGE_CURVE('',#263,#266,#153,.T.);
#335=EDGE_CURVE('',#266,#258,#37,.T.);
#336=EDGE_CURVE('',#267,#262,#154,.T.);
#337=EDGE_CURVE('',#266,#267,#155,.T.);
#338=EDGE_CURVE('',#261,#268,#156,.T.);
#339=EDGE_CURVE('',#268,#267,#38,.T.);
#340=EDGE_CURVE('',#269,#260,#157,.T.);
#341=EDGE_CURVE('',#268,#269,#158,.T.);
#342=EDGE_CURVE('',#259,#270,#159,.T.);
#343=EDGE_CURVE('',#270,#269,#39,.T.);
#344=EDGE_CURVE('',#270,#256,#160,.T.);
#345=EDGE_CURVE('',#233,#264,#161,.T.);
#346=EDGE_CURVE('',#265,#236,#162,.T.);
#347=ORIENTED_EDGE('',*,*,#271,.F.);
#348=ORIENTED_EDGE('',*,*,#272,.T.);
#349=ORIENTED_EDGE('',*,*,#273,.F.);
#350=ORIENTED_EDGE('',*,*,#274,.F.);
#351=ORIENTED_EDGE('',*,*,#275,.F.);
#352=ORIENTED_EDGE('',*,*,#274,.T.);
#353=ORIENTED_EDGE('',*,*,#276,.F.);
#354=ORIENTED_EDGE('',*,*,#277,.T.);
#355=ORIENTED_EDGE('',*,*,#278,.F.);
#356=ORIENTED_EDGE('',*,*,#276,.T.);
#357=ORIENTED_EDGE('',*,*,#273,.T.);
#358=ORIENTED_EDGE('',*,*,#278,.T.);
#359=ORIENTED_EDGE('',*,*,#279,.T.);
#360=ORIENTED_EDGE('',*,*,#280,.T.);
#361=ORIENTED_EDGE('',*,*,#281,.T.);
#362=ORIENTED_EDGE('',*,*,#282,.F.);
#363=ORIENTED_EDGE('',*,*,#283,.T.);
#364=ORIENTED_EDGE('',*,*,#284,.F.);
#365=ORIENTED_EDGE('',*,*,#285,.F.);
#366=ORIENTED_EDGE('',*,*,#286,.F.);
#367=ORIENTED_EDGE('',*,*,#285,.T.);
#368=ORIENTED_EDGE('',*,*,#287,.F.);
#369=ORIENTED_EDGE('',*,*,#288,.T.);
#370=ORIENTED_EDGE('',*,*,#289,.F.);
#371=ORIENTED_EDGE('',*,*,#287,.T.);
#372=ORIENTED_EDGE('',*,*,#284,.T.);
#373=ORIENTED_EDGE('',*,*,#275,.T.);
#374=ORIENTED_EDGE('',*,*,#290,.T.);
#375=ORIENTED_EDGE('',*,*,#291,.T.);
#376=ORIENTED_EDGE('',*,*,#292,.T.);
#377=ORIENTED_EDGE('',*,*,#293,.T.);
#378=ORIENTED_EDGE('',*,*,#282,.T.);
#379=ORIENTED_EDGE('',*,*,#286,.T.);
#380=ORIENTED_EDGE('',*,*,#294,.T.);
#381=ORIENTED_EDGE('',*,*,#295,.T.);
#382=ORIENTED_EDGE('',*,*,#296,.T.);
#383=ORIENTED_EDGE('',*,*,#297,.T.);
#384=ORIENTED_EDGE('',*,*,#271,.T.);
#385=ORIENTED_EDGE('',*,*,#296,.F.);
#386=ORIENTED_EDGE('',*,*,#298,.T.);
#387=ORIENTED_EDGE('',*,*,#299,.F.);
#388=ORIENTED_EDGE('',*,*,#300,.T.);
#389=ORIENTED_EDGE('',*,*,#295,.F.);
#390=ORIENTED_EDGE('',*,*,#301,.T.);
#391=ORIENTED_EDGE('',*,*,#302,.F.);
#392=ORIENTED_EDGE('',*,*,#298,.F.);
#393=ORIENTED_EDGE('',*,*,#302,.T.);
#394=ORIENTED_EDGE('',*,*,#303,.F.);
#395=ORIENTED_EDGE('',*,*,#299,.T.);
#396=ORIENTED_EDGE('',*,*,#303,.T.);
#397=ORIENTED_EDGE('',*,*,#304,.T.);
#398=ORIENTED_EDGE('',*,*,#305,.T.);
#399=ORIENTED_EDGE('',*,*,#306,.T.);
#400=ORIENTED_EDGE('',*,*,#292,.F.);
#401=ORIENTED_EDGE('',*,*,#307,.T.);
#402=ORIENTED_EDGE('',*,*,#308,.F.);
#403=ORIENTED_EDGE('',*,*,#309,.T.);
#404=ORIENTED_EDGE('',*,*,#291,.F.);
#405=ORIENTED_EDGE('',*,*,#310,.T.);
#406=ORIENTED_EDGE('',*,*,#311,.F.);
#407=ORIENTED_EDGE('',*,*,#307,.F.);
#408=ORIENTED_EDGE('',*,*,#311,.T.);
#409=ORIENTED_EDGE('',*,*,#312,.F.);
#410=ORIENTED_EDGE('',*,*,#308,.T.);
#411=ORIENTED_EDGE('',*,*,#312,.T.);
#412=ORIENTED_EDGE('',*,*,#313,.T.);
#413=ORIENTED_EDGE('',*,*,#314,.T.);
#414=ORIENTED_EDGE('',*,*,#315,.T.);
#415=ORIENTED_EDGE('',*,*,#316,.T.);
#416=ORIENTED_EDGE('',*,*,#317,.T.);
#417=ORIENTED_EDGE('',*,*,#318,.T.);
#418=ORIENTED_EDGE('',*,*,#319,.T.);
#419=ORIENTED_EDGE('',*,*,#317,.F.);
#420=ORIENTED_EDGE('',*,*,#320,.F.);
#421=ORIENTED_EDGE('',*,*,#321,.F.);
#422=ORIENTED_EDGE('',*,*,#322,.F.);
#423=ORIENTED_EDGE('',*,*,#316,.F.);
#424=ORIENTED_EDGE('',*,*,#323,.T.);
#425=ORIENTED_EDGE('',*,*,#324,.F.);
#426=ORIENTED_EDGE('',*,*,#325,.T.);
#427=ORIENTED_EDGE('',*,*,#326,.F.);
#428=ORIENTED_EDGE('',*,*,#327,.T.);
#429=ORIENTED_EDGE('',*,*,#328,.F.);
#430=ORIENTED_EDGE('',*,*,#320,.T.);
#431=ORIENTED_EDGE('',*,*,#329,.T.);
#432=ORIENTED_EDGE('',*,*,#314,.F.);
#433=ORIENTED_EDGE('',*,*,#330,.T.);
#434=ORIENTED_EDGE('',*,*,#280,.F.);
#435=ORIENTED_EDGE('',*,*,#331,.T.);
#436=ORIENTED_EDGE('',*,*,#305,.F.);
#437=ORIENTED_EDGE('',*,*,#332,.T.);
#438=ORIENTED_EDGE('',*,*,#333,.F.);
#439=ORIENTED_EDGE('',*,*,#328,.T.);
#440=ORIENTED_EDGE('',*,*,#334,.T.);
#441=ORIENTED_EDGE('',*,*,#335,.T.);
#442=ORIENTED_EDGE('',*,*,#321,.T.);
#443=ORIENTED_EDGE('',*,*,#334,.F.);
#444=ORIENTED_EDGE('',*,*,#327,.F.);
#445=ORIENTED_EDGE('',*,*,#336,.F.);
#446=ORIENTED_EDGE('',*,*,#337,.F.);
#447=ORIENTED_EDGE('',*,*,#326,.T.);
#448=ORIENTED_EDGE('',*,*,#338,.T.);
#449=ORIENTED_EDGE('',*,*,#339,.T.);
#450=ORIENTED_EDGE('',*,*,#336,.T.);
#451=ORIENTED_EDGE('',*,*,#338,.F.);
#452=ORIENTED_EDGE('',*,*,#325,.F.);
#453=ORIENTED_EDGE('',*,*,#340,.F.);
#454=ORIENTED_EDGE('',*,*,#341,.F.);
#455=ORIENTED_EDGE('',*,*,#324,.T.);
#456=ORIENTED_EDGE('',*,*,#342,.T.);
#457=ORIENTED_EDGE('',*,*,#343,.T.);
#458=ORIENTED_EDGE('',*,*,#340,.T.);
#459=ORIENTED_EDGE('',*,*,#319,.F.);
#460=ORIENTED_EDGE('',*,*,#344,.F.);
#461=ORIENTED_EDGE('',*,*,#342,.F.);
#462=ORIENTED_EDGE('',*,*,#323,.F.);
#463=ORIENTED_EDGE('',*,*,#306,.F.);
#464=ORIENTED_EDGE('',*,*,#331,.F.);
#465=ORIENTED_EDGE('',*,*,#279,.F.);
#466=ORIENTED_EDGE('',*,*,#272,.F.);
#467=ORIENTED_EDGE('',*,*,#297,.F.);
#468=ORIENTED_EDGE('',*,*,#300,.F.);
#469=ORIENTED_EDGE('',*,*,#289,.T.);
#470=ORIENTED_EDGE('',*,*,#345,.T.);
#471=ORIENTED_EDGE('',*,*,#333,.T.);
#472=ORIENTED_EDGE('',*,*,#346,.T.);
#473=ORIENTED_EDGE('',*,*,#301,.F.);
#474=ORIENTED_EDGE('',*,*,#294,.F.);
#475=ORIENTED_EDGE('',*,*,#288,.F.);
#476=ORIENTED_EDGE('',*,*,#346,.F.);
#477=ORIENTED_EDGE('',*,*,#332,.F.);
#478=ORIENTED_EDGE('',*,*,#304,.F.);
#479=ORIENTED_EDGE('',*,*,#281,.F.);
#480=ORIENTED_EDGE('',*,*,#330,.F.);
#481=ORIENTED_EDGE('',*,*,#313,.F.);
#482=ORIENTED_EDGE('',*,*,#310,.F.);
#483=ORIENTED_EDGE('',*,*,#290,.F.);
#484=ORIENTED_EDGE('',*,*,#277,.F.);
#485=ORIENTED_EDGE('',*,*,#283,.F.);
#486=ORIENTED_EDGE('',*,*,#293,.F.);
#487=ORIENTED_EDGE('',*,*,#309,.F.);
#488=ORIENTED_EDGE('',*,*,#315,.F.);
#489=ORIENTED_EDGE('',*,*,#329,.F.);
#490=ORIENTED_EDGE('',*,*,#345,.F.);
#491=ORIENTED_EDGE('',*,*,#318,.F.);
#492=ORIENTED_EDGE('',*,*,#322,.T.);
#493=ORIENTED_EDGE('',*,*,#335,.F.);
#494=ORIENTED_EDGE('',*,*,#337,.T.);
#495=ORIENTED_EDGE('',*,*,#339,.F.);
#496=ORIENTED_EDGE('',*,*,#341,.T.);
#497=ORIENTED_EDGE('',*,*,#343,.F.);
#498=ORIENTED_EDGE('',*,*,#344,.T.);
#499=PLANE('',#567);
#500=PLANE('',#568);
#501=PLANE('',#569);
#502=PLANE('',#573);
#503=PLANE('',#574);
#504=PLANE('',#575);
#505=PLANE('',#577);
#506=PLANE('',#578);
#507=PLANE('',#579);
#508=PLANE('',#580);
#509=PLANE('',#584);
#510=PLANE('',#585);
#511=PLANE('',#586);
#512=PLANE('',#593);
#513=PLANE('',#594);
#514=PLANE('',#601);
#515=PLANE('',#604);
#516=PLANE('',#607);
#517=PLANE('',#608);
#518=PLANE('',#610);
#519=PLANE('',#611);
#520=PLANE('',#612);
#521=PLANE('',#613);
#522=ADVANCED_FACE('',(#40),#499,.T.);
#523=ADVANCED_FACE('',(#41),#500,.T.);
#524=ADVANCED_FACE('',(#42),#501,.T.);
#525=ADVANCED_FACE('',(#43),#16,.F.);
#526=ADVANCED_FACE('',(#44),#502,.T.);
#527=ADVANCED_FACE('',(#45),#503,.T.);
#528=ADVANCED_FACE('',(#46),#504,.T.);
#529=ADVANCED_FACE('',(#47),#505,.T.);
#530=ADVANCED_FACE('',(#48),#506,.T.);
#531=ADVANCED_FACE('',(#49),#507,.T.);
#532=ADVANCED_FACE('',(#50),#508,.T.);
#533=ADVANCED_FACE('',(#51),#17,.F.);
#534=ADVANCED_FACE('',(#52),#509,.T.);
#535=ADVANCED_FACE('',(#53),#510,.T.);
#536=ADVANCED_FACE('',(#54),#511,.T.);
#537=ADVANCED_FACE('',(#55),#18,.F.);
#538=ADVANCED_FACE('',(#56),#19,.T.);
#539=ADVANCED_FACE('',(#57),#512,.T.);
#540=ADVANCED_FACE('',(#58,#15),#513,.T.);
#541=ADVANCED_FACE('',(#59),#20,.T.);
#542=ADVANCED_FACE('',(#60),#514,.T.);
#543=ADVANCED_FACE('',(#61),#21,.T.);
#544=ADVANCED_FACE('',(#62),#515,.T.);
#545=ADVANCED_FACE('',(#63),#22,.T.);
#546=ADVANCED_FACE('',(#64),#516,.T.);
#547=ADVANCED_FACE('',(#65),#517,.T.);
#548=ADVANCED_FACE('',(#66),#23,.F.);
#549=ADVANCED_FACE('',(#67),#518,.T.);
#550=ADVANCED_FACE('',(#68),#519,.T.);
#551=ADVANCED_FACE('',(#69),#520,.T.);
#552=ADVANCED_FACE('',(#70),#521,.F.);
#553=CLOSED_SHELL('',(#522,#523,#524,#525,#526,#527,#528,#529,#530,#531,
#532,#533,#534,#535,#536,#537,#538,#539,#540,#541,#542,#543,#544,#545,#546,
#547,#548,#549,#550,#551,#552));
#554=DERIVED_UNIT_ELEMENT(#556,1.);
#555=DERIVED_UNIT_ELEMENT(#931,-3.);
#556=(
MASS_UNIT()
NAMED_UNIT(*)
SI_UNIT(.KILO.,.GRAM.)
);
#557=DERIVED_UNIT((#554,#555));
#558=MEASURE_REPRESENTATION_ITEM('density measure',
POSITIVE_RATIO_MEASURE(7850.),#557);
#559=PROPERTY_DEFINITION_REPRESENTATION(#564,#561);
#560=PROPERTY_DEFINITION_REPRESENTATION(#565,#562);
#561=REPRESENTATION('material name',(#563),#928);
#562=REPRESENTATION('density',(#558),#928);
#563=DESCRIPTIVE_REPRESENTATION_ITEM('Steel','Steel');
#564=PROPERTY_DEFINITION('material property','material name',#938);
#565=PROPERTY_DEFINITION('material property','density of part',#938);
#566=AXIS2_PLACEMENT_3D('',#770,#614,#615);
#567=AXIS2_PLACEMENT_3D('',#771,#616,#617);
#568=AXIS2_PLACEMENT_3D('',#780,#622,#623);
#569=AXIS2_PLACEMENT_3D('',#786,#627,#628);
#570=AXIS2_PLACEMENT_3D('',#787,#629,#630);
#571=AXIS2_PLACEMENT_3D('',#788,#631,#632);
#572=AXIS2_PLACEMENT_3D('',#792,#634,#635);
#573=AXIS2_PLACEMENT_3D('',#794,#637,#638);
#574=AXIS2_PLACEMENT_3D('',#803,#643,#644);
#575=AXIS2_PLACEMENT_3D('',#809,#648,#649);
#576=AXIS2_PLACEMENT_3D('',#810,#650,#651);
#577=AXIS2_PLACEMENT_3D('',#811,#652,#653);
#578=AXIS2_PLACEMENT_3D('',#826,#662,#663);
#579=AXIS2_PLACEMENT_3D('',#832,#667,#668);
#580=AXIS2_PLACEMENT_3D('',#836,#671,#672);
#581=AXIS2_PLACEMENT_3D('',#837,#673,#674);
#582=AXIS2_PLACEMENT_3D('',#838,#675,#676);
#583=AXIS2_PLACEMENT_3D('',#842,#678,#679);
#584=AXIS2_PLACEMENT_3D('',#844,#681,#682);
#585=AXIS2_PLACEMENT_3D('',#850,#686,#687);
#586=AXIS2_PLACEMENT_3D('',#854,#690,#691);
#587=AXIS2_PLACEMENT_3D('',#855,#692,#693);
#588=AXIS2_PLACEMENT_3D('',#856,#694,#695);
#589=AXIS2_PLACEMENT_3D('',#860,#697,#698);
#590=AXIS2_PLACEMENT_3D('',#862,#700,#701);
#591=AXIS2_PLACEMENT_3D('',#865,#702,#703);
#592=AXIS2_PLACEMENT_3D('',#869,#705,#706);
#593=AXIS2_PLACEMENT_3D('',#871,#708,#709);
#594=AXIS2_PLACEMENT_3D('',#877,#713,#714);
#595=AXIS2_PLACEMENT_3D('',#881,#716,#717);
#596=AXIS2_PLACEMENT_3D('',#885,#719,#720);
#597=AXIS2_PLACEMENT_3D('',#888,#722,#723);
#598=AXIS2_PLACEMENT_3D('',#895,#728,#729);
#599=AXIS2_PLACEMENT_3D('',#896,#730,#731);
#600=AXIS2_PLACEMENT_3D('',#899,#733,#734);
#601=AXIS2_PLACEMENT_3D('',#900,#735,#736);
#602=AXIS2_PLACEMENT_3D('',#904,#739,#740);
#603=AXIS2_PLACEMENT_3D('',#907,#742,#743);
#604=AXIS2_PLACEMENT_3D('',#908,#744,#745);
#605=AXIS2_PLACEMENT_3D('',#912,#748,#749);
#606=AXIS2_PLACEMENT_3D('',#915,#751,#752);
#607=AXIS2_PLACEMENT_3D('',#916,#753,#754);
#608=AXIS2_PLACEMENT_3D('',#918,#756,#757);
#609=AXIS2_PLACEMENT_3D('',#919,#758,#759);
#610=AXIS2_PLACEMENT_3D('',#922,#762,#763);
#611=AXIS2_PLACEMENT_3D('',#923,#764,#765);
#612=AXIS2_PLACEMENT_3D('',#924,#766,#767);
#613=AXIS2_PLACEMENT_3D('',#925,#768,#769);
#614=DIRECTION('axis',(0.,0.,1.));
#615=DIRECTION('refdir',(1.,0.,0.));
#616=DIRECTION('center_axis',(0.,-1.,0.));
#617=DIRECTION('ref_axis',(1.,0.,0.));
#618=DIRECTION('',(-1.,0.,0.));
#619=DIRECTION('',(0.,0.,1.));
#620=DIRECTION('',(1.,0.,0.));
#621=DIRECTION('',(0.,0.,1.));
#622=DIRECTION('center_axis',(-1.,0.,0.));
#623=DIRECTION('ref_axis',(0.,-1.,0.));
#624=DIRECTION('',(0.,1.,0.));
#625=DIRECTION('',(0.,-1.,0.));
#626=DIRECTION('',(0.,0.,-1.));
#627=DIRECTION('center_axis',(0.,0.,1.));
#628=DIRECTION('ref_axis',(-1.,0.,0.));
#629=DIRECTION('center_axis',(0.,0.,-1.));
#630=DIRECTION('ref_axis',(0.707106781186548,0.707106781186547,0.));
#631=DIRECTION('center_axis',(0.,0.,1.));
#632=DIRECTION('ref_axis',(0.707106781186548,0.707106781186547,0.));
#633=DIRECTION('',(0.,0.,1.));
#634=DIRECTION('center_axis',(0.,0.,1.));
#635=DIRECTION('ref_axis',(0.707106781186548,0.707106781186547,0.));
#636=DIRECTION('',(0.,0.,-1.));
#637=DIRECTION('center_axis',(0.,1.,0.));
#638=DIRECTION('ref_axis',(-1.,0.,0.));
#639=DIRECTION('',(1.,0.,0.));
#640=DIRECTION('',(0.,0.,1.));
#641=DIRECTION('',(-1.,0.,0.));
#642=DIRECTION('',(0.,0.,1.));
#643=DIRECTION('center_axis',(1.,0.,0.));
#644=DIRECTION('ref_axis',(0.,1.,0.));
#645=DIRECTION('',(0.,-1.,0.));
#646=DIRECTION('',(0.,1.,0.));
#647=DIRECTION('',(0.,0.,-1.));
#648=DIRECTION('center_axis',(0.,0.,1.));
#649=DIRECTION('ref_axis',(-1.,0.,0.));
#650=DIRECTION('center_axis',(0.,0.,-1.));
#651=DIRECTION('ref_axis',(-0.707106781186548,-0.707106781186548,0.));
#652=DIRECTION('center_axis',(0.,0.,1.));
#653=DIRECTION('ref_axis',(1.,0.,0.));
#654=DIRECTION('',(-1.,0.,0.));
#655=DIRECTION('',(0.,-1.,0.));
#656=DIRECTION('',(-1.,0.,0.));
#657=DIRECTION('',(0.,-1.,0.));
#658=DIRECTION('',(1.,0.,0.));
#659=DIRECTION('',(0.,1.,0.));
#660=DIRECTION('',(1.,0.,0.));
#661=DIRECTION('',(0.,1.,0.));
#662=DIRECTION('center_axis',(0.,1.,0.));
#663=DIRECTION('ref_axis',(-1.,0.,0.));
#664=DIRECTION('',(0.,0.,1.));
#665=DIRECTION('',(-1.,0.,0.));
#666=DIRECTION('',(0.,0.,-1.));
#667=DIRECTION('center_axis',(-1.,0.,0.));
#668=DIRECTION('ref_axis',(0.,-1.,0.));
#669=DIRECTION('',(0.,0.,1.));
#670=DIRECTION('',(0.,-1.,0.));
#671=DIRECTION('center_axis',(0.,0.,1.));
#672=DIRECTION('ref_axis',(-1.,0.,0.));
#673=DIRECTION('center_axis',(0.,0.,-1.));
#674=DIRECTION('ref_axis',(0.707106781186548,-0.707106781186548,0.));
#675=DIRECTION('center_axis',(0.,0.,1.));
#676=DIRECTION('ref_axis',(0.707106781186548,-0.707106781186548,0.));
#677=DIRECTION('',(0.,0.,1.));
#678=DIRECTION('center_axis',(0.,0.,1.));
#679=DIRECTION('ref_axis',(0.707106781186548,-0.707106781186548,0.));
#680=DIRECTION('',(0.,0.,-1.));
#681=DIRECTION('center_axis',(0.,-1.,0.));
#682=DIRECTION('ref_axis',(1.,0.,0.));
#683=DIRECTION('',(0.,0.,1.));
#684=DIRECTION('',(1.,0.,0.));
#685=DIRECTION('',(0.,0.,-1.));
#686=DIRECTION('center_axis',(1.,0.,0.));
#687=DIRECTION('ref_axis',(0.,1.,0.));
#688=DIRECTION('',(0.,0.,1.));
#689=DIRECTION('',(0.,1.,0.));
#690=DIRECTION('center_axis',(0.,0.,1.));
#691=DIRECTION('ref_axis',(-1.,0.,0.));
#692=DIRECTION('center_axis',(0.,0.,-1.));
#693=DIRECTION('ref_axis',(-0.707106781186547,0.707106781186548,0.));
#694=DIRECTION('center_axis',(0.,0.,1.));
#695=DIRECTION('ref_axis',(-0.707106781186547,0.707106781186548,0.));
#696=DIRECTION('',(0.,0.,1.));
#697=DIRECTION('center_axis',(0.,0.,1.));
#698=DIRECTION('ref_axis',(-0.707106781186547,0.707106781186548,0.));
#699=DIRECTION('',(0.,0.,-1.));
#700=DIRECTION('center_axis',(0.,0.,1.));
#701=DIRECTION('ref_axis',(-0.707106781186547,-0.707106781186548,0.));
#702=DIRECTION('center_axis',(0.,0.,-1.));
#703=DIRECTION('ref_axis',(-0.707106781186547,-0.707106781186548,0.));
#704=DIRECTION('',(0.,0.,-1.));
#705=DIRECTION('center_axis',(0.,0.,1.));
#706=DIRECTION('ref_axis',(-0.707106781186547,-0.707106781186548,0.));
#707=DIRECTION('',(0.,0.,1.));
#708=DIRECTION('center_axis',(-1.,0.,0.));
#709=DIRECTION('ref_axis',(0.,-1.,0.));
#710=DIRECTION('',(0.,-1.,0.));
#711=DIRECTION('',(0.,0.,1.));
#712=DIRECTION('',(0.,1.,0.));
#713=DIRECTION('center_axis',(0.,0.,1.));
#714=DIRECTION('ref_axis',(1.,0.,0.));
#715=DIRECTION('',(1.,0.,0.));
#716=DIRECTION('center_axis',(0.,0.,-1.));
#717=DIRECTION('ref_axis',(0.707106781186548,-0.707106781186548,0.));
#718=DIRECTION('',(0.,1.,0.));
#719=DIRECTION('center_axis',(0.,0.,-1.));
#720=DIRECTION('ref_axis',(0.707106781186548,0.707106781186547,0.));
#721=DIRECTION('',(-1.,0.,0.));
#722=DIRECTION('center_axis',(0.,0.,-1.));
#723=DIRECTION('ref_axis',(-0.707106781186547,0.707106781186548,0.));
#724=DIRECTION('',(0.,1.,0.));
#725=DIRECTION('',(1.,0.,0.));
#726=DIRECTION('',(0.,-1.,0.));
#727=DIRECTION('',(-1.,0.,0.));
#728=DIRECTION('center_axis',(0.,0.,1.));
#729=DIRECTION('ref_axis',(-0.707106781186548,-0.707106781186548,0.));
#730=DIRECTION('center_axis',(0.,0.,1.));
#731=DIRECTION('ref_axis',(-0.707106781186547,0.707106781186548,0.));
#732=DIRECTION('',(0.,0.,-1.));
#733=DIRECTION('center_axis',(0.,0.,1.));
#734=DIRECTION('ref_axis',(-0.707106781186547,0.707106781186548,0.));
#735=DIRECTION('center_axis',(0.,1.,0.));
#736=DIRECTION('ref_axis',(-1.,0.,0.));
#737=DIRECTION('',(0.,0.,1.));
#738=DIRECTION('',(1.,0.,0.));
#739=DIRECTION('center_axis',(0.,0.,1.));
#740=DIRECTION('ref_axis',(0.707106781186548,0.707106781186547,0.));
#741=DIRECTION('',(0.,0.,-1.));
#742=DIRECTION('center_axis',(0.,0.,1.));
#743=DIRECTION('ref_axis',(0.707106781186548,0.707106781186547,0.));
#744=DIRECTION('center_axis',(1.,0.,0.));
#745=DIRECTION('ref_axis',(0.,1.,0.));
#746=DIRECTION('',(0.,0.,1.));
#747=DIRECTION('',(0.,-1.,0.));
#748=DIRECTION('center_axis',(0.,0.,1.));
#749=DIRECTION('ref_axis',(0.707106781186548,-0.707106781186548,0.));
#750=DIRECTION('',(0.,0.,-1.));
#751=DIRECTION('center_axis',(0.,0.,1.));
#752=DIRECTION('ref_axis',(0.707106781186548,-0.707106781186548,0.));
#753=DIRECTION('center_axis',(0.,-1.,0.));
#754=DIRECTION('ref_axis',(1.,0.,0.));
#755=DIRECTION('',(-1.,0.,0.));
#756=DIRECTION('center_axis',(-1.,0.,0.));
#757=DIRECTION('ref_axis',(0.,-1.,0.));
#758=DIRECTION('center_axis',(0.,0.,1.));
#759=DIRECTION('ref_axis',(-0.707106781186548,-0.707106781186548,0.));
#760=DIRECTION('',(0.,0.,1.));
#761=DIRECTION('',(0.,0.,-1.));
#762=DIRECTION('center_axis',(0.,1.,0.));
#763=DIRECTION('ref_axis',(-1.,0.,0.));
#764=DIRECTION('center_axis',(0.,-1.,0.));
#765=DIRECTION('ref_axis',(1.,0.,0.));
#766=DIRECTION('center_axis',(1.,0.,0.));
#767=DIRECTION('ref_axis',(0.,1.,0.));
#768=DIRECTION('center_axis',(0.,0.,1.));
#769=DIRECTION('ref_axis',(1.,0.,0.));
#770=CARTESIAN_POINT('',(0.,0.,0.));
#771=CARTESIAN_POINT('Origin',(25.5,-4.,2.));
#772=CARTESIAN_POINT('',(27.5,-4.,2.));
#773=CARTESIAN_POINT('',(25.5,-4.,2.));
#774=CARTESIAN_POINT('',(20.125,-4.,2.));
#775=CARTESIAN_POINT('',(27.5,-4.,7.));
#776=CARTESIAN_POINT('',(27.5,-4.,2.));
#777=CARTESIAN_POINT('',(25.5,-4.,7.));
#778=CARTESIAN_POINT('',(27.5,-4.,7.));
#779=CARTESIAN_POINT('',(25.5,-4.,2.));
#780=CARTESIAN_POINT('Origin',(25.5,-2.,2.));
#781=CARTESIAN_POINT('',(25.5,-2.,2.));
#782=CARTESIAN_POINT('',(25.5,-8.375,2.));
#783=CARTESIAN_POINT('',(25.5,-2.,7.));
#784=CARTESIAN_POINT('',(25.5,-4.,7.));
#785=CARTESIAN_POINT('',(25.5,-2.,2.));
#786=CARTESIAN_POINT('Origin',(26.5,-3.,7.));
#787=CARTESIAN_POINT('Origin',(25.5,-4.,7.));
#788=CARTESIAN_POINT('Origin',(25.5,-4.,2.));
#789=CARTESIAN_POINT('',(27.5,-4.,12.));
#790=CARTESIAN_POINT('',(27.5,-4.,2.));
#791=CARTESIAN_POINT('',(25.5,-2.,12.));
#792=CARTESIAN_POINT('Origin',(25.5,-4.,12.));
#793=CARTESIAN_POINT('',(25.5,-2.,2.));
#794=CARTESIAN_POINT('Origin',(4.,-25.5,2.));
#795=CARTESIAN_POINT('',(2.,-25.5,2.));
#796=CARTESIAN_POINT('',(4.,-25.5,2.));
#797=CARTESIAN_POINT('',(9.375,-25.5,2.));
#798=CARTESIAN_POINT('',(2.,-25.5,7.));
#799=CARTESIAN_POINT('',(2.,-25.5,2.));
#800=CARTESIAN_POINT('',(4.,-25.5,7.));
#801=CARTESIAN_POINT('',(2.,-25.5,7.));
#802=CARTESIAN_POINT('',(4.,-25.5,2.));
#803=CARTESIAN_POINT('Origin',(4.,-27.5,2.));
#804=CARTESIAN_POINT('',(4.,-27.5,2.));
#805=CARTESIAN_POINT('',(4.,-21.125,2.));
#806=CARTESIAN_POINT('',(4.,-27.5,7.));
#807=CARTESIAN_POINT('',(4.,-25.5,7.));
#808=CARTESIAN_POINT('',(4.,-27.5,2.));
#809=CARTESIAN_POINT('Origin',(3.,-26.5,7.));
#810=CARTESIAN_POINT('Origin',(4.,-25.5,7.));
#811=CARTESIAN_POINT('Origin',(14.75,-14.75,2.));
#812=CARTESIAN_POINT('',(4.,-2.,2.));
#813=CARTESIAN_POINT('',(8.375,-2.,2.));
#814=CARTESIAN_POINT('',(4.,-4.,2.));
#815=CARTESIAN_POINT('',(4.,-9.375,2.));
#816=CARTESIAN_POINT('',(2.,-4.,2.));
#817=CARTESIAN_POINT('',(8.375,-4.,2.));
#818=CARTESIAN_POINT('',(2.,-21.125,2.));
#819=CARTESIAN_POINT('',(25.5,-27.5,2.));
#820=CARTESIAN_POINT('',(21.125,-27.5,2.));
#821=CARTESIAN_POINT('',(25.5,-25.5,2.));
#822=CARTESIAN_POINT('',(25.5,-20.125,2.));
#823=CARTESIAN_POINT('',(27.5,-25.5,2.));
#824=CARTESIAN_POINT('',(21.125,-25.5,2.));
#825=CARTESIAN_POINT('',(27.5,-8.375,2.));
#826=CARTESIAN_POINT('Origin',(27.5,-25.5,2.));
#827=CARTESIAN_POINT('',(25.5,-25.5,7.));
#828=CARTESIAN_POINT('',(25.5,-25.5,2.));
#829=CARTESIAN_POINT('',(27.5,-25.5,7.));
#830=CARTESIAN_POINT('',(27.5,-25.5,7.));
#831=CARTESIAN_POINT('',(27.5,-25.5,2.));
#832=CARTESIAN_POINT('Origin',(25.5,-25.5,2.));
#833=CARTESIAN_POINT('',(25.5,-27.5,7.));
#834=CARTESIAN_POINT('',(25.5,-27.5,2.));
#835=CARTESIAN_POINT('',(25.5,-25.5,7.));
#836=CARTESIAN_POINT('Origin',(26.5,-26.5,7.));
#837=CARTESIAN_POINT('Origin',(25.5,-25.5,7.));
#838=CARTESIAN_POINT('Origin',(25.5,-25.5,2.));
#839=CARTESIAN_POINT('',(25.5,-27.5,12.));
#840=CARTESIAN_POINT('',(25.5,-27.5,2.));
#841=CARTESIAN_POINT('',(27.5,-25.5,12.));
#842=CARTESIAN_POINT('Origin',(25.5,-25.5,12.));
#843=CARTESIAN_POINT('',(27.5,-25.5,2.));
#844=CARTESIAN_POINT('Origin',(2.,-4.,2.));
#845=CARTESIAN_POINT('',(4.,-4.,7.));
#846=CARTESIAN_POINT('',(4.,-4.,2.));
#847=CARTESIAN_POINT('',(2.,-4.,7.));
#848=CARTESIAN_POINT('',(2.,-4.,7.));
#849=CARTESIAN_POINT('',(2.,-4.,2.));
#850=CARTESIAN_POINT('Origin',(4.,-4.,2.));
#851=CARTESIAN_POINT('',(4.,-2.,7.));
#852=CARTESIAN_POINT('',(4.,-2.,2.));
#853=CARTESIAN_POINT('',(4.,-4.,7.));
#854=CARTESIAN_POINT('Origin',(3.,-3.,7.));
#855=CARTESIAN_POINT('Origin',(4.,-4.,7.));
#856=CARTESIAN_POINT('Origin',(4.,-4.,2.));
#857=CARTESIAN_POINT('',(4.,-2.,12.));
#858=CARTESIAN_POINT('',(4.,-2.,2.));
#859=CARTESIAN_POINT('',(2.,-4.,12.));
#860=CARTESIAN_POINT('Origin',(4.,-4.,12.));
#861=CARTESIAN_POINT('',(2.,-4.,2.));
#862=CARTESIAN_POINT('Origin',(2.,-27.5,0.));
#863=CARTESIAN_POINT('',(2.,-29.5,12.));
#864=CARTESIAN_POINT('',(0.,-27.5,12.));
#865=CARTESIAN_POINT('Origin',(2.,-27.5,12.));
#866=CARTESIAN_POINT('',(0.,-27.5,0.));
#867=CARTESIAN_POINT('',(0.,-27.5,0.));
#868=CARTESIAN_POINT('',(2.,-29.5,0.));
#869=CARTESIAN_POINT('Origin',(2.,-27.5,0.));
#870=CARTESIAN_POINT('',(2.,-29.5,0.));
#871=CARTESIAN_POINT('Origin',(0.,0.,0.));
#872=CARTESIAN_POINT('',(0.,-2.,12.));
#873=CARTESIAN_POINT('',(0.,-29.5,12.));
#874=CARTESIAN_POINT('',(0.,-2.,0.));
#875=CARTESIAN_POINT('',(0.,-2.,0.));
#876=CARTESIAN_POINT('',(0.,-29.5,0.));
#877=CARTESIAN_POINT('Origin',(14.75,-14.75,12.));
#878=CARTESIAN_POINT('',(27.5,-29.5,12.));
#879=CARTESIAN_POINT('',(0.,-29.5,12.));
#880=CARTESIAN_POINT('',(29.5,-27.5,12.));
#881=CARTESIAN_POINT('Origin',(27.5,-27.5,12.));
#882=CARTESIAN_POINT('',(29.5,-2.,12.));
#883=CARTESIAN_POINT('',(29.5,-29.5,12.));
#884=CARTESIAN_POINT('',(27.5,0.,12.));
#885=CARTESIAN_POINT('Origin',(27.5,-2.,12.));
#886=CARTESIAN_POINT('',(2.,0.,12.));
#887=CARTESIAN_POINT('',(29.5,0.,12.));
#888=CARTESIAN_POINT('Origin',(2.,-2.,12.));
#889=CARTESIAN_POINT('',(2.,-25.5,12.));
#890=CARTESIAN_POINT('',(2.,0.,12.));
#891=CARTESIAN_POINT('',(29.5,-2.,12.));
#892=CARTESIAN_POINT('',(27.5,0.,12.));
#893=CARTESIAN_POINT('',(4.,-27.5,12.));
#894=CARTESIAN_POINT('',(29.5,-27.5,12.));
#895=CARTESIAN_POINT('Origin',(4.,-25.5,12.));
#896=CARTESIAN_POINT('Origin',(2.,-2.,0.));
#897=CARTESIAN_POINT('',(2.,0.,0.));
#898=CARTESIAN_POINT('',(2.,0.,0.));
#899=CARTESIAN_POINT('Origin',(2.,-2.,0.));
#900=CARTESIAN_POINT('Origin',(29.5,0.,0.));
#901=CARTESIAN_POINT('',(27.5,0.,0.));
#902=CARTESIAN_POINT('',(27.5,0.,0.));
#903=CARTESIAN_POINT('',(0.,0.,0.));
#904=CARTESIAN_POINT('Origin',(27.5,-2.,0.));
#905=CARTESIAN_POINT('',(29.5,-2.,0.));
#906=CARTESIAN_POINT('',(29.5,-2.,0.));
#907=CARTESIAN_POINT('Origin',(27.5,-2.,0.));
#908=CARTESIAN_POINT('Origin',(29.5,-29.5,0.));
#909=CARTESIAN_POINT('',(29.5,-27.5,0.));
#910=CARTESIAN_POINT('',(29.5,-27.5,0.));
#911=CARTESIAN_POINT('',(29.5,0.,0.));
#912=CARTESIAN_POINT('Origin',(27.5,-27.5,0.));
#913=CARTESIAN_POINT('',(27.5,-29.5,0.));
#914=CARTESIAN_POINT('',(27.5,-29.5,0.));
#915=CARTESIAN_POINT('Origin',(27.5,-27.5,0.));
#916=CARTESIAN_POINT('Origin',(0.,-29.5,0.));
#917=CARTESIAN_POINT('',(29.5,-29.5,0.));
#918=CARTESIAN_POINT('Origin',(27.5,-2.,2.));
#919=CARTESIAN_POINT('Origin',(4.,-25.5,2.));
#920=CARTESIAN_POINT('',(2.,-25.5,2.));
#921=CARTESIAN_POINT('',(4.,-27.5,2.));
#922=CARTESIAN_POINT('Origin',(27.5,-27.5,2.));
#923=CARTESIAN_POINT('Origin',(2.,-2.,2.));
#924=CARTESIAN_POINT('Origin',(2.,-27.5,2.));
#925=CARTESIAN_POINT('Origin',(14.75,-14.75,0.));
#926=UNCERTAINTY_MEASURE_WITH_UNIT(LENGTH_MEASURE(0.01),#930,
'DISTANCE_ACCURACY_VALUE',
'Maximum model space distance between geometric entities at asserted c
onnectivities');
#927=UNCERTAINTY_MEASURE_WITH_UNIT(LENGTH_MEASURE(0.01),#930,
'DISTANCE_ACCURACY_VALUE',
'Maximum model space distance between geometric entities at asserted c
onnectivities');
#928=(
GEOMETRIC_REPRESENTATION_CONTEXT(3)
GLOBAL_UNCERTAINTY_ASSIGNED_CONTEXT((#926))
GLOBAL_UNIT_ASSIGNED_CONTEXT((#930,#932,#933))
REPRESENTATION_CONTEXT('','3D')
);
#929=(
GEOMETRIC_REPRESENTATION_CONTEXT(3)
GLOBAL_UNCERTAINTY_ASSIGNED_CONTEXT((#927))
GLOBAL_UNIT_ASSIGNED_CONTEXT((#930,#932,#933))
REPRESENTATION_CONTEXT('','3D')
);
#930=(
LENGTH_UNIT()
NAMED_UNIT(*)
SI_UNIT(.MILLI.,.METRE.)
);
#931=(
LENGTH_UNIT()
NAMED_UNIT(*)
SI_UNIT($,.METRE.)
);
#932=(
NAMED_UNIT(*)
PLANE_ANGLE_UNIT()
SI_UNIT($,.RADIAN.)
);
#933=(
NAMED_UNIT(*)
SI_UNIT($,.STERADIAN.)
SOLID_ANGLE_UNIT()
);
#934=SHAPE_DEFINITION_REPRESENTATION(#935,#936);
#935=PRODUCT_DEFINITION_SHAPE('',$,#938);
#936=SHAPE_REPRESENTATION('',(#566),#928);
#937=PRODUCT_DEFINITION_CONTEXT('part definition',#942,'design');
#938=PRODUCT_DEFINITION('2026-09-29-22-58-19-789','Bottom case',#939,#937);
#939=PRODUCT_DEFINITION_FORMATION('',$,#944);
#940=PRODUCT_RELATED_PRODUCT_CATEGORY('Bottom case','Bottom case',(#944));
#941=APPLICATION_PROTOCOL_DEFINITION('international standard',
'automotive_design',2009,#942);
#942=APPLICATION_CONTEXT(
'Core Data for Automotive Mechanical Design Process');
#943=PRODUCT_CONTEXT('part definition',#942,'mechanical');
#944=PRODUCT('2026-09-29-22-58-19-789','Bottom case',$,(#943));
#945=PRESENTATION_STYLE_ASSIGNMENT((#946));
#946=SURFACE_STYLE_USAGE(.BOTH.,#947);
#947=SURFACE_SIDE_STYLE('',(#948));
#948=SURFACE_STYLE_FILL_AREA(#949);
#949=FILL_AREA_STYLE('Steel - Satin',(#950));
#950=FILL_AREA_STYLE_COLOUR('Steel - Satin',#951);
#951=COLOUR_RGB('Steel - Satin',0.627450980392157,0.627450980392157,0.627450980392157);
ENDSEC;
END-ISO-10303-21;
