ISO-10303-21;
HEADER;
/* Generated by software containing ST-Developer
 * from STEP Tools, Inc. (www.steptools.com) 
 */

FILE_DESCRIPTION(
/* description */ (''),
/* implementation_level */ '2;1');

FILE_NAME(
/* name */ 'Top case.step',
/* time_stamp */ '2026-09-29T23:54:02+05:30',
/* author */ (''),
/* organization */ (''),
/* preprocessor_version */ 'ST-DEVELOPER v20.2',
/* originating_system */ 'Autodesk Translation Framework v15.15.0.0',
/* authorisation */ '');

FILE_SCHEMA (('AUTOMOTIVE_DESIGN { 1 0 10303 214 3 1 1 }'));
ENDSEC;

DATA;
#10=MECHANICAL_DESIGN_GEOMETRIC_PRESENTATION_REPRESENTATION('',(#13),#1113);
#11=SHAPE_REPRESENTATION_RELATIONSHIP('SRR','None',#1120,#12);
#12=ADVANCED_BREP_SHAPE_REPRESENTATION('',(#14),#1112);
#13=STYLED_ITEM('',(#1129),#14);
#14=MANIFOLD_SOLID_BREP('Body1',#669);
#15=ELLIPSE('',#697,1.41421356237309,1.);
#16=ELLIPSE('',#698,1.4142135623731,1.);
#17=ELLIPSE('',#700,1.4142135623731,1.);
#18=ELLIPSE('',#702,1.4142135623731,1.);
#19=CYLINDRICAL_SURFACE('',#696,1.);
#20=CYLINDRICAL_SURFACE('',#699,1.);
#21=CYLINDRICAL_SURFACE('',#701,1.);
#22=CYLINDRICAL_SURFACE('',#703,1.);
#23=CYLINDRICAL_SURFACE('',#717,2.);
#24=CYLINDRICAL_SURFACE('',#720,2.);
#25=CYLINDRICAL_SURFACE('',#723,2.);
#26=CYLINDRICAL_SURFACE('',#726,2.);
#27=CYLINDRICAL_SURFACE('',#729,2.);
#28=CYLINDRICAL_SURFACE('',#731,2.);
#29=CYLINDRICAL_SURFACE('',#733,2.);
#30=CYLINDRICAL_SURFACE('',#735,2.);
#31=FACE_BOUND('',#74,.T.);
#32=FACE_BOUND('',#86,.T.);
#33=FACE_BOUND('',#87,.T.);
#34=FACE_BOUND('',#88,.T.);
#35=FACE_BOUND('',#112,.T.);
#36=FACE_BOUND('',#113,.T.);
#37=FACE_BOUND('',#114,.T.);
#38=FACE_OUTER_BOUND('',#73,.T.);
#39=FACE_OUTER_BOUND('',#75,.T.);
#40=FACE_OUTER_BOUND('',#76,.T.);
#41=FACE_OUTER_BOUND('',#77,.T.);
#42=FACE_OUTER_BOUND('',#78,.T.);
#43=FACE_OUTER_BOUND('',#79,.T.);
#44=FACE_OUTER_BOUND('',#80,.T.);
#45=FACE_OUTER_BOUND('',#81,.T.);
#46=FACE_OUTER_BOUND('',#82,.T.);
#47=FACE_OUTER_BOUND('',#83,.T.);
#48=FACE_OUTER_BOUND('',#84,.T.);
#49=FACE_OUTER_BOUND('',#85,.T.);
#50=FACE_OUTER_BOUND('',#89,.T.);
#51=FACE_OUTER_BOUND('',#90,.T.);
#52=FACE_OUTER_BOUND('',#91,.T.);
#53=FACE_OUTER_BOUND('',#92,.T.);
#54=FACE_OUTER_BOUND('',#93,.T.);
#55=FACE_OUTER_BOUND('',#94,.T.);
#56=FACE_OUTER_BOUND('',#95,.T.);
#57=FACE_OUTER_BOUND('',#96,.T.);
#58=FACE_OUTER_BOUND('',#97,.T.);
#59=FACE_OUTER_BOUND('',#98,.T.);
#60=FACE_OUTER_BOUND('',#99,.T.);
#61=FACE_OUTER_BOUND('',#100,.T.);
#62=FACE_OUTER_BOUND('',#101,.T.);
#63=FACE_OUTER_BOUND('',#102,.T.);
#64=FACE_OUTER_BOUND('',#103,.T.);
#65=FACE_OUTER_BOUND('',#104,.T.);
#66=FACE_OUTER_BOUND('',#105,.T.);
#67=FACE_OUTER_BOUND('',#106,.T.);
#68=FACE_OUTER_BOUND('',#107,.T.);
#69=FACE_OUTER_BOUND('',#108,.T.);
#70=FACE_OUTER_BOUND('',#109,.T.);
#71=FACE_OUTER_BOUND('',#110,.T.);
#72=FACE_OUTER_BOUND('',#111,.T.);
#73=EDGE_LOOP('',(#427,#428,#429,#430,#431,#432,#433,#434));
#74=EDGE_LOOP('',(#435,#436,#437,#438,#439,#440,#441,#442));
#75=EDGE_LOOP('',(#443,#444,#445,#446));
#76=EDGE_LOOP('',(#447,#448,#449,#450));
#77=EDGE_LOOP('',(#451,#452,#453,#454));
#78=EDGE_LOOP('',(#455,#456,#457,#458));
#79=EDGE_LOOP('',(#459,#460,#461,#462));
#80=EDGE_LOOP('',(#463,#464,#465,#466));
#81=EDGE_LOOP('',(#467,#468,#469,#470));
#82=EDGE_LOOP('',(#471,#472,#473,#474));
#83=EDGE_LOOP('',(#475,#476,#477,#478));
#84=EDGE_LOOP('',(#479,#480,#481,#482));
#85=EDGE_LOOP('',(#483,#484,#485,#486,#487,#488,#489,#490));
#86=EDGE_LOOP('',(#491,#492,#493,#494));
#87=EDGE_LOOP('',(#495,#496,#497,#498));
#88=EDGE_LOOP('',(#499,#500,#501,#502));
#89=EDGE_LOOP('',(#503,#504,#505,#506));
#90=EDGE_LOOP('',(#507,#508,#509,#510));
#91=EDGE_LOOP('',(#511,#512,#513,#514));
#92=EDGE_LOOP('',(#515,#516,#517,#518));
#93=EDGE_LOOP('',(#519,#520,#521,#522));
#94=EDGE_LOOP('',(#523,#524,#525,#526));
#95=EDGE_LOOP('',(#527,#528,#529,#530));
#96=EDGE_LOOP('',(#531,#532,#533,#534));
#97=EDGE_LOOP('',(#535,#536,#537,#538));
#98=EDGE_LOOP('',(#539,#540,#541,#542));
#99=EDGE_LOOP('',(#543,#544,#545,#546));
#100=EDGE_LOOP('',(#547,#548,#549,#550));
#101=EDGE_LOOP('',(#551,#552,#553,#554));
#102=EDGE_LOOP('',(#555,#556,#557,#558));
#103=EDGE_LOOP('',(#559,#560,#561,#562));
#104=EDGE_LOOP('',(#563,#564,#565,#566));
#105=EDGE_LOOP('',(#567,#568,#569,#570));
#106=EDGE_LOOP('',(#571,#572,#573,#574));
#107=EDGE_LOOP('',(#575,#576,#577,#578));
#108=EDGE_LOOP('',(#579,#580,#581,#582));
#109=EDGE_LOOP('',(#583,#584,#585,#586));
#110=EDGE_LOOP('',(#587,#588,#589,#590));
#111=EDGE_LOOP('',(#591,#592,#593,#594,#595,#596,#597,#598));
#112=EDGE_LOOP('',(#599,#600,#601,#602));
#113=EDGE_LOOP('',(#603,#604,#605,#606));
#114=EDGE_LOOP('',(#607,#608,#609,#610));
#115=LINE('',#928,#187);
#116=LINE('',#932,#188);
#117=LINE('',#936,#189);
#118=LINE('',#939,#190);
#119=LINE('',#942,#191);
#120=LINE('',#946,#192);
#121=LINE('',#950,#193);
#122=LINE('',#954,#194);
#123=LINE('',#959,#195);
#124=LINE('',#961,#196);
#125=LINE('',#963,#197);
#126=LINE('',#964,#198);
#127=LINE('',#967,#199);
#128=LINE('',#969,#200);
#129=LINE('',#970,#201);
#130=LINE('',#973,#202);
#131=LINE('',#975,#203);
#132=LINE('',#976,#204);
#133=LINE('',#978,#205);
#134=LINE('',#979,#206);
#135=LINE('',#983,#207);
#136=LINE('',#987,#208);
#137=LINE('',#991,#209);
#138=LINE('',#994,#210);
#139=LINE('',#997,#211);
#140=LINE('',#999,#212);
#141=LINE('',#1002,#213);
#142=LINE('',#1003,#214);
#143=LINE('',#1006,#215);
#144=LINE('',#1008,#216);
#145=LINE('',#1009,#217);
#146=LINE('',#1012,#218);
#147=LINE('',#1013,#219);
#148=LINE('',#1019,#220);
#149=LINE('',#1023,#221);
#150=LINE('',#1027,#222);
#151=LINE('',#1030,#223);
#152=LINE('',#1033,#224);
#153=LINE('',#1035,#225);
#154=LINE('',#1037,#226);
#155=LINE('',#1038,#227);
#156=LINE('',#1041,#228);
#157=LINE('',#1043,#229);
#158=LINE('',#1044,#230);
#159=LINE('',#1047,#231);
#160=LINE('',#1048,#232);
#161=LINE('',#1051,#233);
#162=LINE('',#1052,#234);
#163=LINE('',#1054,#235);
#164=LINE('',#1057,#236);
#165=LINE('',#1058,#237);
#166=LINE('',#1060,#238);
#167=LINE('',#1063,#239);
#168=LINE('',#1066,#240);
#169=LINE('',#1069,#241);
#170=LINE('',#1070,#242);
#171=LINE('',#1073,#243);
#172=LINE('',#1077,#244);
#173=LINE('',#1078,#245);
#174=LINE('',#1081,#246);
#175=LINE('',#1085,#247);
#176=LINE('',#1086,#248);
#177=LINE('',#1089,#249);
#178=LINE('',#1092,#250);
#179=LINE('',#1094,#251);
#180=LINE('',#1095,#252);
#181=LINE('',#1097,#253);
#182=LINE('',#1099,#254);
#183=LINE('',#1100,#255);
#184=LINE('',#1103,#256);
#185=LINE('',#1104,#257);
#186=LINE('',#1107,#258);
#187=VECTOR('',#744,10.);
#188=VECTOR('',#747,10.);
#189=VECTOR('',#750,10.);
#190=VECTOR('',#753,10.);
#191=VECTOR('',#754,10.);
#192=VECTOR('',#757,10.);
#193=VECTOR('',#760,10.);
#194=VECTOR('',#763,10.);
#195=VECTOR('',#768,10.);
#196=VECTOR('',#769,10.);
#197=VECTOR('',#770,10.);
#198=VECTOR('',#771,10.);
#199=VECTOR('',#774,10.);
#200=VECTOR('',#775,10.);
#201=VECTOR('',#776,10.);
#202=VECTOR('',#779,10.);
#203=VECTOR('',#780,10.);
#204=VECTOR('',#781,10.);
#205=VECTOR('',#784,10.);
#206=VECTOR('',#785,10.);
#207=VECTOR('',#788,10.);
#208=VECTOR('',#791,10.);
#209=VECTOR('',#796,10.);
#210=VECTOR('',#799,10.);
#211=VECTOR('',#802,10.);
#212=VECTOR('',#803,10.);
#213=VECTOR('',#808,10.);
#214=VECTOR('',#809,10.);
#215=VECTOR('',#812,10.);
#216=VECTOR('',#813,10.);
#217=VECTOR('',#814,10.);
#218=VECTOR('',#817,10.);
#219=VECTOR('',#818,10.);
#220=VECTOR('',#823,10.);
#221=VECTOR('',#826,10.);
#222=VECTOR('',#829,10.);
#223=VECTOR('',#832,10.);
#224=VECTOR('',#833,10.);
#225=VECTOR('',#834,10.);
#226=VECTOR('',#835,10.);
#227=VECTOR('',#836,10.);
#228=VECTOR('',#839,10.);
#229=VECTOR('',#840,10.);
#230=VECTOR('',#841,10.);
#231=VECTOR('',#844,10.);
#232=VECTOR('',#845,10.);
#233=VECTOR('',#848,10.);
#234=VECTOR('',#849,10.);
#235=VECTOR('',#852,10.);
#236=VECTOR('',#855,10.);
#237=VECTOR('',#856,10.);
#238=VECTOR('',#859,10.);
#239=VECTOR('',#862,10.);
#240=VECTOR('',#865,10.);
#241=VECTOR('',#868,10.);
#242=VECTOR('',#869,10.);
#243=VECTOR('',#872,10.);
#244=VECTOR('',#877,10.);
#245=VECTOR('',#878,10.);
#246=VECTOR('',#881,10.);
#247=VECTOR('',#886,10.);
#248=VECTOR('',#887,10.);
#249=VECTOR('',#890,10.);
#250=VECTOR('',#895,10.);
#251=VECTOR('',#898,10.);
#252=VECTOR('',#899,10.);
#253=VECTOR('',#902,10.);
#254=VECTOR('',#905,10.);
#255=VECTOR('',#906,10.);
#256=VECTOR('',#911,10.);
#257=VECTOR('',#912,10.);
#258=VECTOR('',#917,10.);
#259=CIRCLE('',#684,2.);
#260=CIRCLE('',#685,2.);
#261=CIRCLE('',#686,2.);
#262=CIRCLE('',#687,2.);
#263=CIRCLE('',#688,2.);
#264=CIRCLE('',#689,2.);
#265=CIRCLE('',#690,2.);
#266=CIRCLE('',#691,2.);
#267=CIRCLE('',#707,2.);
#268=CIRCLE('',#708,2.);
#269=CIRCLE('',#709,2.);
#270=CIRCLE('',#710,2.);
#271=CIRCLE('',#718,2.);
#272=CIRCLE('',#721,2.);
#273=CIRCLE('',#724,2.);
#274=CIRCLE('',#727,2.);
#275=VERTEX_POINT('',#924);
#276=VERTEX_POINT('',#925);
#277=VERTEX_POINT('',#927);
#278=VERTEX_POINT('',#929);
#279=VERTEX_POINT('',#931);
#280=VERTEX_POINT('',#933);
#281=VERTEX_POINT('',#935);
#282=VERTEX_POINT('',#937);
#283=VERTEX_POINT('',#940);
#284=VERTEX_POINT('',#941);
#285=VERTEX_POINT('',#943);
#286=VERTEX_POINT('',#945);
#287=VERTEX_POINT('',#947);
#288=VERTEX_POINT('',#949);
#289=VERTEX_POINT('',#951);
#290=VERTEX_POINT('',#953);
#291=VERTEX_POINT('',#957);
#292=VERTEX_POINT('',#958);
#293=VERTEX_POINT('',#960);
#294=VERTEX_POINT('',#962);
#295=VERTEX_POINT('',#966);
#296=VERTEX_POINT('',#968);
#297=VERTEX_POINT('',#972);
#298=VERTEX_POINT('',#974);
#299=VERTEX_POINT('',#981);
#300=VERTEX_POINT('',#982);
#301=VERTEX_POINT('',#984);
#302=VERTEX_POINT('',#986);
#303=VERTEX_POINT('',#990);
#304=VERTEX_POINT('',#992);
#305=VERTEX_POINT('',#996);
#306=VERTEX_POINT('',#998);
#307=VERTEX_POINT('',#1005);
#308=VERTEX_POINT('',#1007);
#309=VERTEX_POINT('',#1011);
#310=VERTEX_POINT('',#1015);
#311=VERTEX_POINT('',#1016);
#312=VERTEX_POINT('',#1018);
#313=VERTEX_POINT('',#1020);
#314=VERTEX_POINT('',#1022);
#315=VERTEX_POINT('',#1024);
#316=VERTEX_POINT('',#1026);
#317=VERTEX_POINT('',#1028);
#318=VERTEX_POINT('',#1031);
#319=VERTEX_POINT('',#1032);
#320=VERTEX_POINT('',#1034);
#321=VERTEX_POINT('',#1036);
#322=VERTEX_POINT('',#1040);
#323=VERTEX_POINT('',#1042);
#324=VERTEX_POINT('',#1046);
#325=VERTEX_POINT('',#1050);
#326=VERTEX_POINT('',#1056);
#327=VERTEX_POINT('',#1062);
#328=VERTEX_POINT('',#1064);
#329=VERTEX_POINT('',#1068);
#330=VERTEX_POINT('',#1072);
#331=VERTEX_POINT('',#1076);
#332=VERTEX_POINT('',#1080);
#333=VERTEX_POINT('',#1084);
#334=VERTEX_POINT('',#1088);
#335=EDGE_CURVE('',#275,#276,#259,.T.);
#336=EDGE_CURVE('',#276,#277,#115,.T.);
#337=EDGE_CURVE('',#277,#278,#260,.T.);
#338=EDGE_CURVE('',#278,#279,#116,.T.);
#339=EDGE_CURVE('',#279,#280,#261,.T.);
#340=EDGE_CURVE('',#280,#281,#117,.T.);
#341=EDGE_CURVE('',#281,#282,#262,.T.);
#342=EDGE_CURVE('',#282,#275,#118,.T.);
#343=EDGE_CURVE('',#283,#284,#119,.T.);
#344=EDGE_CURVE('',#284,#285,#263,.T.);
#345=EDGE_CURVE('',#285,#286,#120,.T.);
#346=EDGE_CURVE('',#286,#287,#264,.T.);
#347=EDGE_CURVE('',#287,#288,#121,.T.);
#348=EDGE_CURVE('',#288,#289,#265,.T.);
#349=EDGE_CURVE('',#289,#290,#122,.T.);
#350=EDGE_CURVE('',#290,#283,#266,.T.);
#351=EDGE_CURVE('',#291,#292,#123,.T.);
#352=EDGE_CURVE('',#291,#293,#124,.T.);
#353=EDGE_CURVE('',#294,#293,#125,.T.);
#354=EDGE_CURVE('',#292,#294,#126,.T.);
#355=EDGE_CURVE('',#295,#291,#127,.T.);
#356=EDGE_CURVE('',#295,#296,#128,.T.);
#357=EDGE_CURVE('',#293,#296,#129,.T.);
#358=EDGE_CURVE('',#297,#295,#130,.T.);
#359=EDGE_CURVE('',#297,#298,#131,.T.);
#360=EDGE_CURVE('',#296,#298,#132,.T.);
#361=EDGE_CURVE('',#292,#297,#133,.T.);
#362=EDGE_CURVE('',#298,#294,#134,.T.);
#363=EDGE_CURVE('',#299,#300,#135,.T.);
#364=EDGE_CURVE('',#300,#301,#15,.T.);
#365=EDGE_CURVE('',#301,#302,#136,.T.);
#366=EDGE_CURVE('',#302,#299,#16,.T.);
#367=EDGE_CURVE('',#300,#303,#137,.T.);
#368=EDGE_CURVE('',#303,#304,#17,.T.);
#369=EDGE_CURVE('',#304,#301,#138,.T.);
#370=EDGE_CURVE('',#305,#304,#139,.T.);
#371=EDGE_CURVE('',#303,#306,#140,.T.);
#372=EDGE_CURVE('',#306,#305,#18,.T.);
#373=EDGE_CURVE('',#306,#299,#141,.T.);
#374=EDGE_CURVE('',#302,#305,#142,.T.);
#375=EDGE_CURVE('',#302,#307,#143,.T.);
#376=EDGE_CURVE('',#308,#307,#144,.T.);
#377=EDGE_CURVE('',#305,#308,#145,.T.);
#378=EDGE_CURVE('',#301,#309,#146,.T.);
#379=EDGE_CURVE('',#307,#309,#147,.T.);
#380=EDGE_CURVE('',#310,#311,#267,.T.);
#381=EDGE_CURVE('',#311,#312,#148,.T.);
#382=EDGE_CURVE('',#312,#313,#268,.T.);
#383=EDGE_CURVE('',#313,#314,#149,.T.);
#384=EDGE_CURVE('',#314,#315,#269,.T.);
#385=EDGE_CURVE('',#315,#316,#150,.T.);
#386=EDGE_CURVE('',#316,#317,#270,.T.);
#387=EDGE_CURVE('',#317,#310,#151,.T.);
#388=EDGE_CURVE('',#318,#319,#152,.T.);
#389=EDGE_CURVE('',#319,#320,#153,.T.);
#390=EDGE_CURVE('',#320,#321,#154,.T.);
#391=EDGE_CURVE('',#321,#318,#155,.T.);
#392=EDGE_CURVE('',#318,#322,#156,.T.);
#393=EDGE_CURVE('',#323,#322,#157,.T.);
#394=EDGE_CURVE('',#319,#323,#158,.T.);
#395=EDGE_CURVE('',#321,#324,#159,.T.);
#396=EDGE_CURVE('',#322,#324,#160,.T.);
#397=EDGE_CURVE('',#320,#325,#161,.T.);
#398=EDGE_CURVE('',#324,#325,#162,.T.);
#399=EDGE_CURVE('',#325,#323,#163,.T.);
#400=EDGE_CURVE('',#304,#326,#164,.T.);
#401=EDGE_CURVE('',#309,#326,#165,.T.);
#402=EDGE_CURVE('',#326,#308,#166,.T.);
#403=EDGE_CURVE('',#275,#327,#167,.T.);
#404=EDGE_CURVE('',#327,#328,#271,.T.);
#405=EDGE_CURVE('',#328,#276,#168,.T.);
#406=EDGE_CURVE('',#329,#282,#169,.T.);
#407=EDGE_CURVE('',#327,#329,#170,.T.);
#408=EDGE_CURVE('',#281,#330,#171,.T.);
#409=EDGE_CURVE('',#330,#329,#272,.T.);
#410=EDGE_CURVE('',#331,#280,#172,.T.);
#411=EDGE_CURVE('',#330,#331,#173,.T.);
#412=EDGE_CURVE('',#279,#332,#174,.T.);
#413=EDGE_CURVE('',#332,#331,#273,.T.);
#414=EDGE_CURVE('',#333,#278,#175,.T.);
#415=EDGE_CURVE('',#332,#333,#176,.T.);
#416=EDGE_CURVE('',#277,#334,#177,.T.);
#417=EDGE_CURVE('',#334,#333,#274,.T.);
#418=EDGE_CURVE('',#334,#328,#178,.T.);
#419=EDGE_CURVE('',#310,#287,#179,.T.);
#420=EDGE_CURVE('',#286,#311,#180,.T.);
#421=EDGE_CURVE('',#312,#285,#181,.T.);
#422=EDGE_CURVE('',#316,#289,#182,.T.);
#423=EDGE_CURVE('',#288,#317,#183,.T.);
#424=EDGE_CURVE('',#314,#283,#184,.T.);
#425=EDGE_CURVE('',#290,#315,#185,.T.);
#426=EDGE_CURVE('',#284,#313,#186,.T.);
#427=ORIENTED_EDGE('',*,*,#335,.T.);
#428=ORIENTED_EDGE('',*,*,#336,.T.);
#429=ORIENTED_EDGE('',*,*,#337,.T.);
#430=ORIENTED_EDGE('',*,*,#338,.T.);
#431=ORIENTED_EDGE('',*,*,#339,.T.);
#432=ORIENTED_EDGE('',*,*,#340,.T.);
#433=ORIENTED_EDGE('',*,*,#341,.T.);
#434=ORIENTED_EDGE('',*,*,#342,.T.);
#435=ORIENTED_EDGE('',*,*,#343,.T.);
#436=ORIENTED_EDGE('',*,*,#344,.T.);
#437=ORIENTED_EDGE('',*,*,#345,.T.);
#438=ORIENTED_EDGE('',*,*,#346,.T.);
#439=ORIENTED_EDGE('',*,*,#347,.T.);
#440=ORIENTED_EDGE('',*,*,#348,.T.);
#441=ORIENTED_EDGE('',*,*,#349,.T.);
#442=ORIENTED_EDGE('',*,*,#350,.T.);
#443=ORIENTED_EDGE('',*,*,#351,.F.);
#444=ORIENTED_EDGE('',*,*,#352,.T.);
#445=ORIENTED_EDGE('',*,*,#353,.F.);
#446=ORIENTED_EDGE('',*,*,#354,.F.);
#447=ORIENTED_EDGE('',*,*,#355,.F.);
#448=ORIENTED_EDGE('',*,*,#356,.T.);
#449=ORIENTED_EDGE('',*,*,#357,.F.);
#450=ORIENTED_EDGE('',*,*,#352,.F.);
#451=ORIENTED_EDGE('',*,*,#358,.F.);
#452=ORIENTED_EDGE('',*,*,#359,.T.);
#453=ORIENTED_EDGE('',*,*,#360,.F.);
#454=ORIENTED_EDGE('',*,*,#356,.F.);
#455=ORIENTED_EDGE('',*,*,#361,.F.);
#456=ORIENTED_EDGE('',*,*,#354,.T.);
#457=ORIENTED_EDGE('',*,*,#362,.F.);
#458=ORIENTED_EDGE('',*,*,#359,.F.);
#459=ORIENTED_EDGE('',*,*,#363,.T.);
#460=ORIENTED_EDGE('',*,*,#364,.T.);
#461=ORIENTED_EDGE('',*,*,#365,.T.);
#462=ORIENTED_EDGE('',*,*,#366,.T.);
#463=ORIENTED_EDGE('',*,*,#367,.T.);
#464=ORIENTED_EDGE('',*,*,#368,.T.);
#465=ORIENTED_EDGE('',*,*,#369,.T.);
#466=ORIENTED_EDGE('',*,*,#364,.F.);
#467=ORIENTED_EDGE('',*,*,#370,.T.);
#468=ORIENTED_EDGE('',*,*,#368,.F.);
#469=ORIENTED_EDGE('',*,*,#371,.T.);
#470=ORIENTED_EDGE('',*,*,#372,.T.);
#471=ORIENTED_EDGE('',*,*,#373,.T.);
#472=ORIENTED_EDGE('',*,*,#366,.F.);
#473=ORIENTED_EDGE('',*,*,#374,.T.);
#474=ORIENTED_EDGE('',*,*,#372,.F.);
#475=ORIENTED_EDGE('',*,*,#374,.F.);
#476=ORIENTED_EDGE('',*,*,#375,.T.);
#477=ORIENTED_EDGE('',*,*,#376,.F.);
#478=ORIENTED_EDGE('',*,*,#377,.F.);
#479=ORIENTED_EDGE('',*,*,#365,.F.);
#480=ORIENTED_EDGE('',*,*,#378,.T.);
#481=ORIENTED_EDGE('',*,*,#379,.F.);
#482=ORIENTED_EDGE('',*,*,#375,.F.);
#483=ORIENTED_EDGE('',*,*,#380,.T.);
#484=ORIENTED_EDGE('',*,*,#381,.T.);
#485=ORIENTED_EDGE('',*,*,#382,.T.);
#486=ORIENTED_EDGE('',*,*,#383,.T.);
#487=ORIENTED_EDGE('',*,*,#384,.T.);
#488=ORIENTED_EDGE('',*,*,#385,.T.);
#489=ORIENTED_EDGE('',*,*,#386,.T.);
#490=ORIENTED_EDGE('',*,*,#387,.T.);
#491=ORIENTED_EDGE('',*,*,#351,.T.);
#492=ORIENTED_EDGE('',*,*,#361,.T.);
#493=ORIENTED_EDGE('',*,*,#358,.T.);
#494=ORIENTED_EDGE('',*,*,#355,.T.);
#495=ORIENTED_EDGE('',*,*,#388,.T.);
#496=ORIENTED_EDGE('',*,*,#389,.T.);
#497=ORIENTED_EDGE('',*,*,#390,.T.);
#498=ORIENTED_EDGE('',*,*,#391,.T.);
#499=ORIENTED_EDGE('',*,*,#363,.F.);
#500=ORIENTED_EDGE('',*,*,#373,.F.);
#501=ORIENTED_EDGE('',*,*,#371,.F.);
#502=ORIENTED_EDGE('',*,*,#367,.F.);
#503=ORIENTED_EDGE('',*,*,#388,.F.);
#504=ORIENTED_EDGE('',*,*,#392,.T.);
#505=ORIENTED_EDGE('',*,*,#393,.F.);
#506=ORIENTED_EDGE('',*,*,#394,.F.);
#507=ORIENTED_EDGE('',*,*,#391,.F.);
#508=ORIENTED_EDGE('',*,*,#395,.T.);
#509=ORIENTED_EDGE('',*,*,#396,.F.);
#510=ORIENTED_EDGE('',*,*,#392,.F.);
#511=ORIENTED_EDGE('',*,*,#390,.F.);
#512=ORIENTED_EDGE('',*,*,#397,.T.);
#513=ORIENTED_EDGE('',*,*,#398,.F.);
#514=ORIENTED_EDGE('',*,*,#395,.F.);
#515=ORIENTED_EDGE('',*,*,#389,.F.);
#516=ORIENTED_EDGE('',*,*,#394,.T.);
#517=ORIENTED_EDGE('',*,*,#399,.F.);
#518=ORIENTED_EDGE('',*,*,#397,.F.);
#519=ORIENTED_EDGE('',*,*,#369,.F.);
#520=ORIENTED_EDGE('',*,*,#400,.T.);
#521=ORIENTED_EDGE('',*,*,#401,.F.);
#522=ORIENTED_EDGE('',*,*,#378,.F.);
#523=ORIENTED_EDGE('',*,*,#370,.F.);
#524=ORIENTED_EDGE('',*,*,#377,.T.);
#525=ORIENTED_EDGE('',*,*,#402,.F.);
#526=ORIENTED_EDGE('',*,*,#400,.F.);
#527=ORIENTED_EDGE('',*,*,#403,.T.);
#528=ORIENTED_EDGE('',*,*,#404,.T.);
#529=ORIENTED_EDGE('',*,*,#405,.T.);
#530=ORIENTED_EDGE('',*,*,#335,.F.);
#531=ORIENTED_EDGE('',*,*,#403,.F.);
#532=ORIENTED_EDGE('',*,*,#342,.F.);
#533=ORIENTED_EDGE('',*,*,#406,.F.);
#534=ORIENTED_EDGE('',*,*,#407,.F.);
#535=ORIENTED_EDGE('',*,*,#408,.T.);
#536=ORIENTED_EDGE('',*,*,#409,.T.);
#537=ORIENTED_EDGE('',*,*,#406,.T.);
#538=ORIENTED_EDGE('',*,*,#341,.F.);
#539=ORIENTED_EDGE('',*,*,#408,.F.);
#540=ORIENTED_EDGE('',*,*,#340,.F.);
#541=ORIENTED_EDGE('',*,*,#410,.F.);
#542=ORIENTED_EDGE('',*,*,#411,.F.);
#543=ORIENTED_EDGE('',*,*,#412,.T.);
#544=ORIENTED_EDGE('',*,*,#413,.T.);
#545=ORIENTED_EDGE('',*,*,#410,.T.);
#546=ORIENTED_EDGE('',*,*,#339,.F.);
#547=ORIENTED_EDGE('',*,*,#412,.F.);
#548=ORIENTED_EDGE('',*,*,#338,.F.);
#549=ORIENTED_EDGE('',*,*,#414,.F.);
#550=ORIENTED_EDGE('',*,*,#415,.F.);
#551=ORIENTED_EDGE('',*,*,#416,.T.);
#552=ORIENTED_EDGE('',*,*,#417,.T.);
#553=ORIENTED_EDGE('',*,*,#414,.T.);
#554=ORIENTED_EDGE('',*,*,#337,.F.);
#555=ORIENTED_EDGE('',*,*,#405,.F.);
#556=ORIENTED_EDGE('',*,*,#418,.F.);
#557=ORIENTED_EDGE('',*,*,#416,.F.);
#558=ORIENTED_EDGE('',*,*,#336,.F.);
#559=ORIENTED_EDGE('',*,*,#380,.F.);
#560=ORIENTED_EDGE('',*,*,#419,.T.);
#561=ORIENTED_EDGE('',*,*,#346,.F.);
#562=ORIENTED_EDGE('',*,*,#420,.T.);
#563=ORIENTED_EDGE('',*,*,#420,.F.);
#564=ORIENTED_EDGE('',*,*,#345,.F.);
#565=ORIENTED_EDGE('',*,*,#421,.F.);
#566=ORIENTED_EDGE('',*,*,#381,.F.);
#567=ORIENTED_EDGE('',*,*,#386,.F.);
#568=ORIENTED_EDGE('',*,*,#422,.T.);
#569=ORIENTED_EDGE('',*,*,#348,.F.);
#570=ORIENTED_EDGE('',*,*,#423,.T.);
#571=ORIENTED_EDGE('',*,*,#419,.F.);
#572=ORIENTED_EDGE('',*,*,#387,.F.);
#573=ORIENTED_EDGE('',*,*,#423,.F.);
#574=ORIENTED_EDGE('',*,*,#347,.F.);
#575=ORIENTED_EDGE('',*,*,#384,.F.);
#576=ORIENTED_EDGE('',*,*,#424,.T.);
#577=ORIENTED_EDGE('',*,*,#350,.F.);
#578=ORIENTED_EDGE('',*,*,#425,.T.);
#579=ORIENTED_EDGE('',*,*,#422,.F.);
#580=ORIENTED_EDGE('',*,*,#385,.F.);
#581=ORIENTED_EDGE('',*,*,#425,.F.);
#582=ORIENTED_EDGE('',*,*,#349,.F.);
#583=ORIENTED_EDGE('',*,*,#382,.F.);
#584=ORIENTED_EDGE('',*,*,#421,.T.);
#585=ORIENTED_EDGE('',*,*,#344,.F.);
#586=ORIENTED_EDGE('',*,*,#426,.T.);
#587=ORIENTED_EDGE('',*,*,#424,.F.);
#588=ORIENTED_EDGE('',*,*,#383,.F.);
#589=ORIENTED_EDGE('',*,*,#426,.F.);
#590=ORIENTED_EDGE('',*,*,#343,.F.);
#591=ORIENTED_EDGE('',*,*,#404,.F.);
#592=ORIENTED_EDGE('',*,*,#407,.T.);
#593=ORIENTED_EDGE('',*,*,#409,.F.);
#594=ORIENTED_EDGE('',*,*,#411,.T.);
#595=ORIENTED_EDGE('',*,*,#413,.F.);
#596=ORIENTED_EDGE('',*,*,#415,.T.);
#597=ORIENTED_EDGE('',*,*,#417,.F.);
#598=ORIENTED_EDGE('',*,*,#418,.T.);
#599=ORIENTED_EDGE('',*,*,#353,.T.);
#600=ORIENTED_EDGE('',*,*,#357,.T.);
#601=ORIENTED_EDGE('',*,*,#360,.T.);
#602=ORIENTED_EDGE('',*,*,#362,.T.);
#603=ORIENTED_EDGE('',*,*,#393,.T.);
#604=ORIENTED_EDGE('',*,*,#396,.T.);
#605=ORIENTED_EDGE('',*,*,#398,.T.);
#606=ORIENTED_EDGE('',*,*,#399,.T.);
#607=ORIENTED_EDGE('',*,*,#379,.T.);
#608=ORIENTED_EDGE('',*,*,#401,.T.);
#609=ORIENTED_EDGE('',*,*,#402,.T.);
#610=ORIENTED_EDGE('',*,*,#376,.T.);
#611=PLANE('',#683);
#612=PLANE('',#692);
#613=PLANE('',#693);
#614=PLANE('',#694);
#615=PLANE('',#695);
#616=PLANE('',#704);
#617=PLANE('',#705);
#618=PLANE('',#706);
#619=PLANE('',#711);
#620=PLANE('',#712);
#621=PLANE('',#713);
#622=PLANE('',#714);
#623=PLANE('',#715);
#624=PLANE('',#716);
#625=PLANE('',#719);
#626=PLANE('',#722);
#627=PLANE('',#725);
#628=PLANE('',#728);
#629=PLANE('',#730);
#630=PLANE('',#732);
#631=PLANE('',#734);
#632=PLANE('',#736);
#633=PLANE('',#737);
#634=ADVANCED_FACE('',(#38,#31),#611,.T.);
#635=ADVANCED_FACE('',(#39),#612,.F.);
#636=ADVANCED_FACE('',(#40),#613,.F.);
#637=ADVANCED_FACE('',(#41),#614,.F.);
#638=ADVANCED_FACE('',(#42),#615,.F.);
#639=ADVANCED_FACE('',(#43),#19,.T.);
#640=ADVANCED_FACE('',(#44),#20,.T.);
#641=ADVANCED_FACE('',(#45),#21,.T.);
#642=ADVANCED_FACE('',(#46),#22,.T.);
#643=ADVANCED_FACE('',(#47),#616,.F.);
#644=ADVANCED_FACE('',(#48),#617,.F.);
#645=ADVANCED_FACE('',(#49,#32,#33,#34),#618,.T.);
#646=ADVANCED_FACE('',(#50),#619,.F.);
#647=ADVANCED_FACE('',(#51),#620,.F.);
#648=ADVANCED_FACE('',(#52),#621,.F.);
#649=ADVANCED_FACE('',(#53),#622,.F.);
#650=ADVANCED_FACE('',(#54),#623,.F.);
#651=ADVANCED_FACE('',(#55),#624,.F.);
#652=ADVANCED_FACE('',(#56),#23,.T.);
#653=ADVANCED_FACE('',(#57),#625,.T.);
#654=ADVANCED_FACE('',(#58),#24,.T.);
#655=ADVANCED_FACE('',(#59),#626,.T.);
#656=ADVANCED_FACE('',(#60),#25,.T.);
#657=ADVANCED_FACE('',(#61),#627,.T.);
#658=ADVANCED_FACE('',(#62),#26,.T.);
#659=ADVANCED_FACE('',(#63),#628,.T.);
#660=ADVANCED_FACE('',(#64),#27,.F.);
#661=ADVANCED_FACE('',(#65),#629,.T.);
#662=ADVANCED_FACE('',(#66),#28,.F.);
#663=ADVANCED_FACE('',(#67),#630,.T.);
#664=ADVANCED_FACE('',(#68),#29,.F.);
#665=ADVANCED_FACE('',(#69),#631,.T.);
#666=ADVANCED_FACE('',(#70),#30,.F.);
#667=ADVANCED_FACE('',(#71),#632,.T.);
#668=ADVANCED_FACE('',(#72,#35,#36,#37),#633,.F.);
#669=CLOSED_SHELL('',(#634,#635,#636,#637,#638,#639,#640,#641,#642,#643,
#644,#645,#646,#647,#648,#649,#650,#651,#652,#653,#654,#655,#656,#657,#658,
#659,#660,#661,#662,#663,#664,#665,#666,#667,#668));
#670=DERIVED_UNIT_ELEMENT(#672,1.);
#671=DERIVED_UNIT_ELEMENT(#1115,-3.);
#672=(
MASS_UNIT()
NAMED_UNIT(*)
SI_UNIT(.KILO.,.GRAM.)
);
#673=DERIVED_UNIT((#670,#671));
#674=MEASURE_REPRESENTATION_ITEM('density measure',
POSITIVE_RATIO_MEASURE(7850.),#673);
#675=PROPERTY_DEFINITION_REPRESENTATION(#680,#677);
#676=PROPERTY_DEFINITION_REPRESENTATION(#681,#678);
#677=REPRESENTATION('material name',(#679),#1112);
#678=REPRESENTATION('density',(#674),#1112);
#679=DESCRIPTIVE_REPRESENTATION_ITEM('Steel','Steel');
#680=PROPERTY_DEFINITION('material property','material name',#1122);
#681=PROPERTY_DEFINITION('material property','density of part',#1122);
#682=AXIS2_PLACEMENT_3D('',#922,#738,#739);
#683=AXIS2_PLACEMENT_3D('',#923,#740,#741);
#684=AXIS2_PLACEMENT_3D('',#926,#742,#743);
#685=AXIS2_PLACEMENT_3D('',#930,#745,#746);
#686=AXIS2_PLACEMENT_3D('',#934,#748,#749);
#687=AXIS2_PLACEMENT_3D('',#938,#751,#752);
#688=AXIS2_PLACEMENT_3D('',#944,#755,#756);
#689=AXIS2_PLACEMENT_3D('',#948,#758,#759);
#690=AXIS2_PLACEMENT_3D('',#952,#761,#762);
#691=AXIS2_PLACEMENT_3D('',#955,#764,#765);
#692=AXIS2_PLACEMENT_3D('',#956,#766,#767);
#693=AXIS2_PLACEMENT_3D('',#965,#772,#773);
#694=AXIS2_PLACEMENT_3D('',#971,#777,#778);
#695=AXIS2_PLACEMENT_3D('',#977,#782,#783);
#696=AXIS2_PLACEMENT_3D('',#980,#786,#787);
#697=AXIS2_PLACEMENT_3D('',#985,#789,#790);
#698=AXIS2_PLACEMENT_3D('',#988,#792,#793);
#699=AXIS2_PLACEMENT_3D('',#989,#794,#795);
#700=AXIS2_PLACEMENT_3D('',#993,#797,#798);
#701=AXIS2_PLACEMENT_3D('',#995,#800,#801);
#702=AXIS2_PLACEMENT_3D('',#1000,#804,#805);
#703=AXIS2_PLACEMENT_3D('',#1001,#806,#807);
#704=AXIS2_PLACEMENT_3D('',#1004,#810,#811);
#705=AXIS2_PLACEMENT_3D('',#1010,#815,#816);
#706=AXIS2_PLACEMENT_3D('',#1014,#819,#820);
#707=AXIS2_PLACEMENT_3D('',#1017,#821,#822);
#708=AXIS2_PLACEMENT_3D('',#1021,#824,#825);
#709=AXIS2_PLACEMENT_3D('',#1025,#827,#828);
#710=AXIS2_PLACEMENT_3D('',#1029,#830,#831);
#711=AXIS2_PLACEMENT_3D('',#1039,#837,#838);
#712=AXIS2_PLACEMENT_3D('',#1045,#842,#843);
#713=AXIS2_PLACEMENT_3D('',#1049,#846,#847);
#714=AXIS2_PLACEMENT_3D('',#1053,#850,#851);
#715=AXIS2_PLACEMENT_3D('',#1055,#853,#854);
#716=AXIS2_PLACEMENT_3D('',#1059,#857,#858);
#717=AXIS2_PLACEMENT_3D('',#1061,#860,#861);
#718=AXIS2_PLACEMENT_3D('',#1065,#863,#864);
#719=AXIS2_PLACEMENT_3D('',#1067,#866,#867);
#720=AXIS2_PLACEMENT_3D('',#1071,#870,#871);
#721=AXIS2_PLACEMENT_3D('',#1074,#873,#874);
#722=AXIS2_PLACEMENT_3D('',#1075,#875,#876);
#723=AXIS2_PLACEMENT_3D('',#1079,#879,#880);
#724=AXIS2_PLACEMENT_3D('',#1082,#882,#883);
#725=AXIS2_PLACEMENT_3D('',#1083,#884,#885);
#726=AXIS2_PLACEMENT_3D('',#1087,#888,#889);
#727=AXIS2_PLACEMENT_3D('',#1090,#891,#892);
#728=AXIS2_PLACEMENT_3D('',#1091,#893,#894);
#729=AXIS2_PLACEMENT_3D('',#1093,#896,#897);
#730=AXIS2_PLACEMENT_3D('',#1096,#900,#901);
#731=AXIS2_PLACEMENT_3D('',#1098,#903,#904);
#732=AXIS2_PLACEMENT_3D('',#1101,#907,#908);
#733=AXIS2_PLACEMENT_3D('',#1102,#909,#910);
#734=AXIS2_PLACEMENT_3D('',#1105,#913,#914);
#735=AXIS2_PLACEMENT_3D('',#1106,#915,#916);
#736=AXIS2_PLACEMENT_3D('',#1108,#918,#919);
#737=AXIS2_PLACEMENT_3D('',#1109,#920,#921);
#738=DIRECTION('axis',(0.,0.,1.));
#739=DIRECTION('refdir',(1.,0.,0.));
#740=DIRECTION('center_axis',(0.,0.,1.));
#741=DIRECTION('ref_axis',(1.,0.,0.));
#742=DIRECTION('center_axis',(0.,0.,1.));
#743=DIRECTION('ref_axis',(0.707106781186548,-0.707106781186548,0.));
#744=DIRECTION('',(0.,1.,0.));
#745=DIRECTION('center_axis',(0.,0.,1.));
#746=DIRECTION('ref_axis',(0.707106781186548,0.707106781186547,0.));
#747=DIRECTION('',(-1.,0.,0.));
#748=DIRECTION('center_axis',(0.,0.,1.));
#749=DIRECTION('ref_axis',(-0.707106781186547,0.707106781186548,0.));
#750=DIRECTION('',(0.,-1.,0.));
#751=DIRECTION('center_axis',(0.,0.,1.));
#752=DIRECTION('ref_axis',(-0.707106781186547,-0.707106781186548,0.));
#753=DIRECTION('',(1.,0.,0.));
#754=DIRECTION('',(0.,1.,0.));
#755=DIRECTION('center_axis',(0.,0.,-1.));
#756=DIRECTION('ref_axis',(-0.707106781186547,0.707106781186548,0.));
#757=DIRECTION('',(1.,0.,0.));
#758=DIRECTION('center_axis',(0.,0.,-1.));
#759=DIRECTION('ref_axis',(0.707106781186548,0.707106781186547,0.));
#760=DIRECTION('',(0.,-1.,0.));
#761=DIRECTION('center_axis',(0.,0.,-1.));
#762=DIRECTION('ref_axis',(0.707106781186548,-0.707106781186548,0.));
#763=DIRECTION('',(-1.,0.,0.));
#764=DIRECTION('center_axis',(0.,0.,-1.));
#765=DIRECTION('ref_axis',(-0.707106781186548,-0.707106781186548,0.));
#766=DIRECTION('center_axis',(1.,0.,0.));
#767=DIRECTION('ref_axis',(0.,-1.,0.));
#768=DIRECTION('',(0.,-1.,0.));
#769=DIRECTION('',(0.,0.,-1.));
#770=DIRECTION('',(0.,1.,0.));
#771=DIRECTION('',(0.,0.,-1.));
#772=DIRECTION('center_axis',(0.,1.,0.));
#773=DIRECTION('ref_axis',(1.,0.,0.));
#774=DIRECTION('',(1.,0.,0.));
#775=DIRECTION('',(0.,0.,-1.));
#776=DIRECTION('',(-1.,0.,0.));
#777=DIRECTION('center_axis',(-1.,0.,0.));
#778=DIRECTION('ref_axis',(0.,1.,0.));
#779=DIRECTION('',(0.,1.,0.));
#780=DIRECTION('',(0.,0.,-1.));
#781=DIRECTION('',(0.,-1.,0.));
#782=DIRECTION('center_axis',(0.,-1.,0.));
#783=DIRECTION('ref_axis',(-1.,0.,0.));
#784=DIRECTION('',(-1.,0.,0.));
#785=DIRECTION('',(1.,0.,0.));
#786=DIRECTION('center_axis',(0.,-1.,0.));
#787=DIRECTION('ref_axis',(-0.707106781186548,0.,0.707106781186547));
#788=DIRECTION('',(0.,1.,0.));
#789=DIRECTION('center_axis',(0.707106781186547,-0.707106781186548,0.));
#790=DIRECTION('ref_axis',(0.707106781186548,0.707106781186547,0.));
#791=DIRECTION('',(0.,-1.,0.));
#792=DIRECTION('center_axis',(0.707106781186548,0.707106781186548,0.));
#793=DIRECTION('ref_axis',(-0.707106781186548,0.707106781186548,0.));
#794=DIRECTION('center_axis',(1.,0.,0.));
#795=DIRECTION('ref_axis',(0.,-0.707106781186547,0.707106781186548));
#796=DIRECTION('',(-1.,0.,0.));
#797=DIRECTION('center_axis',(0.707106781186547,0.707106781186548,7.85046229341888E-16));
#798=DIRECTION('ref_axis',(-0.707106781186548,0.707106781186547,7.85046229341887E-16));
#799=DIRECTION('',(1.,0.,0.));
#800=DIRECTION('center_axis',(0.,1.,0.));
#801=DIRECTION('ref_axis',(0.707106781186548,0.,0.707106781186547));
#802=DIRECTION('',(0.,1.,0.));
#803=DIRECTION('',(0.,-1.,0.));
#804=DIRECTION('center_axis',(-0.707106781186548,0.707106781186548,0.));
#805=DIRECTION('ref_axis',(-0.707106781186548,-0.707106781186548,0.));
#806=DIRECTION('center_axis',(-1.,0.,0.));
#807=DIRECTION('ref_axis',(0.,0.707106781186548,0.707106781186547));
#808=DIRECTION('',(1.,0.,0.));
#809=DIRECTION('',(-1.,0.,0.));
#810=DIRECTION('center_axis',(0.,-1.,0.));
#811=DIRECTION('ref_axis',(-1.,0.,0.));
#812=DIRECTION('',(0.,0.,-1.));
#813=DIRECTION('',(1.,0.,0.));
#814=DIRECTION('',(0.,0.,-1.));
#815=DIRECTION('center_axis',(1.,0.,0.));
#816=DIRECTION('ref_axis',(0.,-1.,0.));
#817=DIRECTION('',(0.,0.,-1.));
#818=DIRECTION('',(0.,1.,0.));
#819=DIRECTION('center_axis',(0.,0.,1.));
#820=DIRECTION('ref_axis',(1.,0.,0.));
#821=DIRECTION('center_axis',(0.,0.,1.));
#822=DIRECTION('ref_axis',(0.707106781186548,0.707106781186547,0.));
#823=DIRECTION('',(-1.,0.,0.));
#824=DIRECTION('center_axis',(0.,0.,1.));
#825=DIRECTION('ref_axis',(-0.707106781186547,0.707106781186548,0.));
#826=DIRECTION('',(0.,-1.,0.));
#827=DIRECTION('center_axis',(0.,0.,1.));
#828=DIRECTION('ref_axis',(-0.707106781186548,-0.707106781186548,0.));
#829=DIRECTION('',(1.,0.,0.));
#830=DIRECTION('center_axis',(0.,0.,1.));
#831=DIRECTION('ref_axis',(0.707106781186548,-0.707106781186548,0.));
#832=DIRECTION('',(0.,1.,0.));
#833=DIRECTION('',(1.,0.,0.));
#834=DIRECTION('',(0.,-1.,0.));
#835=DIRECTION('',(-1.,0.,0.));
#836=DIRECTION('',(0.,1.,0.));
#837=DIRECTION('center_axis',(0.,1.,0.));
#838=DIRECTION('ref_axis',(1.,0.,0.));
#839=DIRECTION('',(0.,0.,-1.));
#840=DIRECTION('',(-1.,0.,0.));
#841=DIRECTION('',(0.,0.,-1.));
#842=DIRECTION('center_axis',(-1.,0.,0.));
#843=DIRECTION('ref_axis',(0.,1.,0.));
#844=DIRECTION('',(0.,0.,-1.));
#845=DIRECTION('',(0.,-1.,0.));
#846=DIRECTION('center_axis',(0.,-1.,0.));
#847=DIRECTION('ref_axis',(-1.,0.,0.));
#848=DIRECTION('',(0.,0.,-1.));
#849=DIRECTION('',(1.,0.,0.));
#850=DIRECTION('center_axis',(1.,0.,0.));
#851=DIRECTION('ref_axis',(0.,-1.,0.));
#852=DIRECTION('',(0.,1.,0.));
#853=DIRECTION('center_axis',(0.,1.,0.));
#854=DIRECTION('ref_axis',(1.,0.,0.));
#855=DIRECTION('',(0.,0.,-1.));
#856=DIRECTION('',(-1.,0.,0.));
#857=DIRECTION('center_axis',(-1.,0.,0.));
#858=DIRECTION('ref_axis',(0.,1.,0.));
#859=DIRECTION('',(0.,-1.,0.));
#860=DIRECTION('center_axis',(0.,0.,1.));
#861=DIRECTION('ref_axis',(0.707106781186548,-0.707106781186548,0.));
#862=DIRECTION('',(0.,0.,-1.));
#863=DIRECTION('center_axis',(0.,0.,1.));
#864=DIRECTION('ref_axis',(0.707106781186548,-0.707106781186548,0.));
#865=DIRECTION('',(0.,0.,1.));
#866=DIRECTION('center_axis',(0.,-1.,0.));
#867=DIRECTION('ref_axis',(1.,0.,0.));
#868=DIRECTION('',(0.,0.,1.));
#869=DIRECTION('',(-1.,0.,0.));
#870=DIRECTION('center_axis',(0.,0.,1.));
#871=DIRECTION('ref_axis',(-0.707106781186547,-0.707106781186548,0.));
#872=DIRECTION('',(0.,0.,-1.));
#873=DIRECTION('center_axis',(0.,0.,1.));
#874=DIRECTION('ref_axis',(-0.707106781186547,-0.707106781186548,0.));
#875=DIRECTION('center_axis',(-1.,0.,0.));
#876=DIRECTION('ref_axis',(0.,-1.,0.));
#877=DIRECTION('',(0.,0.,1.));
#878=DIRECTION('',(0.,1.,0.));
#879=DIRECTION('center_axis',(0.,0.,1.));
#880=DIRECTION('ref_axis',(-0.707106781186547,0.707106781186548,0.));
#881=DIRECTION('',(0.,0.,-1.));
#882=DIRECTION('center_axis',(0.,0.,1.));
#883=DIRECTION('ref_axis',(-0.707106781186547,0.707106781186548,0.));
#884=DIRECTION('center_axis',(0.,1.,0.));
#885=DIRECTION('ref_axis',(-1.,0.,0.));
#886=DIRECTION('',(0.,0.,1.));
#887=DIRECTION('',(1.,0.,0.));
#888=DIRECTION('center_axis',(0.,0.,1.));
#889=DIRECTION('ref_axis',(0.707106781186548,0.707106781186547,0.));
#890=DIRECTION('',(0.,0.,-1.));
#891=DIRECTION('center_axis',(0.,0.,1.));
#892=DIRECTION('ref_axis',(0.707106781186548,0.707106781186547,0.));
#893=DIRECTION('center_axis',(1.,0.,0.));
#894=DIRECTION('ref_axis',(0.,1.,0.));
#895=DIRECTION('',(0.,-1.,0.));
#896=DIRECTION('center_axis',(0.,0.,1.));
#897=DIRECTION('ref_axis',(0.707106781186548,0.707106781186547,0.));
#898=DIRECTION('',(0.,0.,1.));
#899=DIRECTION('',(0.,0.,-1.));
#900=DIRECTION('center_axis',(0.,-1.,0.));
#901=DIRECTION('ref_axis',(1.,0.,0.));
#902=DIRECTION('',(0.,0.,1.));
#903=DIRECTION('center_axis',(0.,0.,1.));
#904=DIRECTION('ref_axis',(0.707106781186548,-0.707106781186548,0.));
#905=DIRECTION('',(0.,0.,1.));
#906=DIRECTION('',(0.,0.,-1.));
#907=DIRECTION('center_axis',(-1.,0.,0.));
#908=DIRECTION('ref_axis',(0.,-1.,0.));
#909=DIRECTION('center_axis',(0.,0.,1.));
#910=DIRECTION('ref_axis',(-0.707106781186548,-0.707106781186548,0.));
#911=DIRECTION('',(0.,0.,1.));
#912=DIRECTION('',(0.,0.,-1.));
#913=DIRECTION('center_axis',(0.,1.,0.));
#914=DIRECTION('ref_axis',(-1.,0.,0.));
#915=DIRECTION('center_axis',(0.,0.,1.));
#916=DIRECTION('ref_axis',(-0.707106781186547,0.707106781186548,0.));
#917=DIRECTION('',(0.,0.,-1.));
#918=DIRECTION('center_axis',(1.,0.,0.));
#919=DIRECTION('ref_axis',(0.,1.,0.));
#920=DIRECTION('center_axis',(0.,0.,1.));
#921=DIRECTION('ref_axis',(1.,0.,0.));
#922=CARTESIAN_POINT('',(0.,0.,0.));
#923=CARTESIAN_POINT('Origin',(17.,-17.,12.));
#924=CARTESIAN_POINT('',(32.,-34.,12.));
#925=CARTESIAN_POINT('',(34.,-32.,12.));
#926=CARTESIAN_POINT('Origin',(32.,-32.,12.));
#927=CARTESIAN_POINT('',(34.,-2.,12.));
#928=CARTESIAN_POINT('',(34.,-34.,12.));
#929=CARTESIAN_POINT('',(32.,0.,12.));
#930=CARTESIAN_POINT('Origin',(32.,-2.,12.));
#931=CARTESIAN_POINT('',(2.,0.,12.));
#932=CARTESIAN_POINT('',(0.,0.,12.));
#933=CARTESIAN_POINT('',(0.,-2.,12.));
#934=CARTESIAN_POINT('Origin',(2.,-2.,12.));
#935=CARTESIAN_POINT('',(0.,-32.,12.));
#936=CARTESIAN_POINT('',(0.,-34.,12.));
#937=CARTESIAN_POINT('',(2.,-34.,12.));
#938=CARTESIAN_POINT('Origin',(2.,-32.,12.));
#939=CARTESIAN_POINT('',(0.,-34.,12.));
#940=CARTESIAN_POINT('',(2.,-30.,12.));
#941=CARTESIAN_POINT('',(2.,-4.,12.));
#942=CARTESIAN_POINT('',(2.,0.,12.));
#943=CARTESIAN_POINT('',(4.,-2.,12.));
#944=CARTESIAN_POINT('Origin',(4.,-4.,12.));
#945=CARTESIAN_POINT('',(30.,-2.,12.));
#946=CARTESIAN_POINT('',(34.,-2.,12.));
#947=CARTESIAN_POINT('',(32.,-4.,12.));
#948=CARTESIAN_POINT('Origin',(30.,-4.,12.));
#949=CARTESIAN_POINT('',(32.,-30.,12.));
#950=CARTESIAN_POINT('',(32.,-2.,12.));
#951=CARTESIAN_POINT('',(30.,-32.,12.));
#952=CARTESIAN_POINT('Origin',(30.,-30.,12.));
#953=CARTESIAN_POINT('',(4.,-32.,12.));
#954=CARTESIAN_POINT('',(34.,-32.,12.));
#955=CARTESIAN_POINT('Origin',(4.,-30.,12.));
#956=CARTESIAN_POINT('Origin',(21.99,-13.4,2.));
#957=CARTESIAN_POINT('',(21.99,-13.4,2.));
#958=CARTESIAN_POINT('',(21.99,-24.5,2.));
#959=CARTESIAN_POINT('',(21.99,-15.2,2.));
#960=CARTESIAN_POINT('',(21.99,-13.4,0.));
#961=CARTESIAN_POINT('',(21.99,-13.4,2.));
#962=CARTESIAN_POINT('',(21.99,-24.5,0.));
#963=CARTESIAN_POINT('',(21.99,-15.2,0.));
#964=CARTESIAN_POINT('',(21.99,-24.5,2.));
#965=CARTESIAN_POINT('Origin',(12.29,-13.4,2.));
#966=CARTESIAN_POINT('',(12.29,-13.4,2.));
#967=CARTESIAN_POINT('',(14.645,-13.4,2.));
#968=CARTESIAN_POINT('',(12.29,-13.4,0.));
#969=CARTESIAN_POINT('',(12.29,-13.4,2.));
#970=CARTESIAN_POINT('',(14.645,-13.4,0.));
#971=CARTESIAN_POINT('Origin',(12.29,-24.5,2.));
#972=CARTESIAN_POINT('',(12.29,-24.5,2.));
#973=CARTESIAN_POINT('',(12.29,-20.75,2.));
#974=CARTESIAN_POINT('',(12.29,-24.5,0.));
#975=CARTESIAN_POINT('',(12.29,-24.5,2.));
#976=CARTESIAN_POINT('',(12.29,-20.75,0.));
#977=CARTESIAN_POINT('Origin',(21.99,-24.5,2.));
#978=CARTESIAN_POINT('',(19.495,-24.5,2.));
#979=CARTESIAN_POINT('',(19.495,-24.5,0.));
#980=CARTESIAN_POINT('Origin',(19.4,-11.,1.));
#981=CARTESIAN_POINT('',(19.4,-12.,2.));
#982=CARTESIAN_POINT('',(19.4,-4.,2.));
#983=CARTESIAN_POINT('',(19.4,-11.,2.));
#984=CARTESIAN_POINT('',(18.4,-5.,1.));
#985=CARTESIAN_POINT('Origin',(19.4,-4.,1.));
#986=CARTESIAN_POINT('',(18.4,-11.,1.));
#987=CARTESIAN_POINT('',(18.4,-11.,1.));
#988=CARTESIAN_POINT('Origin',(19.4,-12.,1.));
#989=CARTESIAN_POINT('Origin',(14.7,-4.,1.));
#990=CARTESIAN_POINT('',(11.4,-4.,2.));
#991=CARTESIAN_POINT('',(14.7,-4.,2.));
#992=CARTESIAN_POINT('',(12.4,-5.,1.));
#993=CARTESIAN_POINT('Origin',(11.4,-4.,1.));
#994=CARTESIAN_POINT('',(14.7,-5.,1.));
#995=CARTESIAN_POINT('Origin',(11.4,-14.,1.));
#996=CARTESIAN_POINT('',(12.4,-11.,1.));
#997=CARTESIAN_POINT('',(12.4,-14.,1.));
#998=CARTESIAN_POINT('',(11.4,-12.,2.));
#999=CARTESIAN_POINT('',(11.4,-14.,2.));
#1000=CARTESIAN_POINT('Origin',(11.4,-12.,1.));
#1001=CARTESIAN_POINT('Origin',(17.7,-12.,1.));
#1002=CARTESIAN_POINT('',(17.7,-12.,2.));
#1003=CARTESIAN_POINT('',(17.7,-11.,1.));
#1004=CARTESIAN_POINT('Origin',(18.4,-11.,2.));
#1005=CARTESIAN_POINT('',(18.4,-11.,0.));
#1006=CARTESIAN_POINT('',(18.4,-11.,2.));
#1007=CARTESIAN_POINT('',(12.4,-11.,0.));
#1008=CARTESIAN_POINT('',(17.7,-11.,0.));
#1009=CARTESIAN_POINT('',(12.4,-11.,2.));
#1010=CARTESIAN_POINT('Origin',(18.4,-5.,2.));
#1011=CARTESIAN_POINT('',(18.4,-5.,0.));
#1012=CARTESIAN_POINT('',(18.4,-5.,2.));
#1013=CARTESIAN_POINT('',(18.4,-11.,0.));
#1014=CARTESIAN_POINT('Origin',(17.,-17.,2.));
#1015=CARTESIAN_POINT('',(32.,-4.,2.));
#1016=CARTESIAN_POINT('',(30.,-2.,2.));
#1017=CARTESIAN_POINT('Origin',(30.,-4.,2.));
#1018=CARTESIAN_POINT('',(4.,-2.,2.));
#1019=CARTESIAN_POINT('',(9.5,-2.,2.));
#1020=CARTESIAN_POINT('',(2.,-4.,2.));
#1021=CARTESIAN_POINT('Origin',(4.,-4.,2.));
#1022=CARTESIAN_POINT('',(2.,-30.,2.));
#1023=CARTESIAN_POINT('',(2.,-24.5,2.));
#1024=CARTESIAN_POINT('',(4.,-32.,2.));
#1025=CARTESIAN_POINT('Origin',(4.,-30.,2.));
#1026=CARTESIAN_POINT('',(30.,-32.,2.));
#1027=CARTESIAN_POINT('',(24.5,-32.,2.));
#1028=CARTESIAN_POINT('',(32.,-30.,2.));
#1029=CARTESIAN_POINT('Origin',(30.,-30.,2.));
#1030=CARTESIAN_POINT('',(32.,-9.5,2.));
#1031=CARTESIAN_POINT('',(21.96,-4.985,2.));
#1032=CARTESIAN_POINT('',(27.04,-4.985,2.));
#1033=CARTESIAN_POINT('',(19.48,-4.985,2.));
#1034=CARTESIAN_POINT('',(27.04,-7.525,2.));
#1035=CARTESIAN_POINT('',(27.04,-10.9925,2.));
#1036=CARTESIAN_POINT('',(21.96,-7.525,2.));
#1037=CARTESIAN_POINT('',(22.02,-7.525,2.));
#1038=CARTESIAN_POINT('',(21.96,-12.2625,2.));
#1039=CARTESIAN_POINT('Origin',(21.96,-4.985,2.));
#1040=CARTESIAN_POINT('',(21.96,-4.985,0.));
#1041=CARTESIAN_POINT('',(21.96,-4.985,2.));
#1042=CARTESIAN_POINT('',(27.04,-4.985,0.));
#1043=CARTESIAN_POINT('',(19.48,-4.985,0.));
#1044=CARTESIAN_POINT('',(27.04,-4.985,2.));
#1045=CARTESIAN_POINT('Origin',(21.96,-7.525,2.));
#1046=CARTESIAN_POINT('',(21.96,-7.525,0.));
#1047=CARTESIAN_POINT('',(21.96,-7.525,2.));
#1048=CARTESIAN_POINT('',(21.96,-12.2625,0.));
#1049=CARTESIAN_POINT('Origin',(27.04,-7.525,2.));
#1050=CARTESIAN_POINT('',(27.04,-7.525,0.));
#1051=CARTESIAN_POINT('',(27.04,-7.525,2.));
#1052=CARTESIAN_POINT('',(22.02,-7.525,0.));
#1053=CARTESIAN_POINT('Origin',(27.04,-4.985,2.));
#1054=CARTESIAN_POINT('',(27.04,-10.9925,0.));
#1055=CARTESIAN_POINT('Origin',(12.4,-5.,2.));
#1056=CARTESIAN_POINT('',(12.4,-5.,0.));
#1057=CARTESIAN_POINT('',(12.4,-5.,2.));
#1058=CARTESIAN_POINT('',(14.7,-5.,0.));
#1059=CARTESIAN_POINT('Origin',(12.4,-11.,2.));
#1060=CARTESIAN_POINT('',(12.4,-14.,0.));
#1061=CARTESIAN_POINT('Origin',(32.,-32.,0.));
#1062=CARTESIAN_POINT('',(32.,-34.,0.));
#1063=CARTESIAN_POINT('',(32.,-34.,0.));
#1064=CARTESIAN_POINT('',(34.,-32.,0.));
#1065=CARTESIAN_POINT('Origin',(32.,-32.,0.));
#1066=CARTESIAN_POINT('',(34.,-32.,0.));
#1067=CARTESIAN_POINT('Origin',(0.,-34.,0.));
#1068=CARTESIAN_POINT('',(2.,-34.,0.));
#1069=CARTESIAN_POINT('',(2.,-34.,0.));
#1070=CARTESIAN_POINT('',(34.,-34.,0.));
#1071=CARTESIAN_POINT('Origin',(2.,-32.,0.));
#1072=CARTESIAN_POINT('',(0.,-32.,0.));
#1073=CARTESIAN_POINT('',(0.,-32.,0.));
#1074=CARTESIAN_POINT('Origin',(2.,-32.,0.));
#1075=CARTESIAN_POINT('Origin',(0.,0.,0.));
#1076=CARTESIAN_POINT('',(0.,-2.,0.));
#1077=CARTESIAN_POINT('',(0.,-2.,0.));
#1078=CARTESIAN_POINT('',(0.,-34.,0.));
#1079=CARTESIAN_POINT('Origin',(2.,-2.,0.));
#1080=CARTESIAN_POINT('',(2.,0.,0.));
#1081=CARTESIAN_POINT('',(2.,0.,0.));
#1082=CARTESIAN_POINT('Origin',(2.,-2.,0.));
#1083=CARTESIAN_POINT('Origin',(34.,0.,0.));
#1084=CARTESIAN_POINT('',(32.,0.,0.));
#1085=CARTESIAN_POINT('',(32.,0.,0.));
#1086=CARTESIAN_POINT('',(0.,0.,0.));
#1087=CARTESIAN_POINT('Origin',(32.,-2.,0.));
#1088=CARTESIAN_POINT('',(34.,-2.,0.));
#1089=CARTESIAN_POINT('',(34.,-2.,0.));
#1090=CARTESIAN_POINT('Origin',(32.,-2.,0.));
#1091=CARTESIAN_POINT('Origin',(34.,-34.,0.));
#1092=CARTESIAN_POINT('',(34.,0.,0.));
#1093=CARTESIAN_POINT('Origin',(30.,-4.,2.));
#1094=CARTESIAN_POINT('',(32.,-4.,2.));
#1095=CARTESIAN_POINT('',(30.,-2.,2.));
#1096=CARTESIAN_POINT('Origin',(2.,-2.,2.));
#1097=CARTESIAN_POINT('',(4.,-2.,2.));
#1098=CARTESIAN_POINT('Origin',(30.,-30.,2.));
#1099=CARTESIAN_POINT('',(30.,-32.,2.));
#1100=CARTESIAN_POINT('',(32.,-30.,2.));
#1101=CARTESIAN_POINT('Origin',(32.,-2.,2.));
#1102=CARTESIAN_POINT('Origin',(4.,-30.,2.));
#1103=CARTESIAN_POINT('',(2.,-30.,2.));
#1104=CARTESIAN_POINT('',(4.,-32.,2.));
#1105=CARTESIAN_POINT('Origin',(32.,-32.,2.));
#1106=CARTESIAN_POINT('Origin',(4.,-4.,2.));
#1107=CARTESIAN_POINT('',(2.,-4.,2.));
#1108=CARTESIAN_POINT('Origin',(2.,-32.,2.));
#1109=CARTESIAN_POINT('Origin',(17.,-17.,0.));
#1110=UNCERTAINTY_MEASURE_WITH_UNIT(LENGTH_MEASURE(0.01),#1114,
'DISTANCE_ACCURACY_VALUE',
'Maximum model space distance between geometric entities at asserted c
onnectivities');
#1111=UNCERTAINTY_MEASURE_WITH_UNIT(LENGTH_MEASURE(0.01),#1114,
'DISTANCE_ACCURACY_VALUE',
'Maximum model space distance between geometric entities at asserted c
onnectivities');
#1112=(
GEOMETRIC_REPRESENTATION_CONTEXT(3)
GLOBAL_UNCERTAINTY_ASSIGNED_CONTEXT((#1110))
GLOBAL_UNIT_ASSIGNED_CONTEXT((#1114,#1116,#1117))
REPRESENTATION_CONTEXT('','3D')
);
#1113=(
GEOMETRIC_REPRESENTATION_CONTEXT(3)
GLOBAL_UNCERTAINTY_ASSIGNED_CONTEXT((#1111))
GLOBAL_UNIT_ASSIGNED_CONTEXT((#1114,#1116,#1117))
REPRESENTATION_CONTEXT('','3D')
);
#1114=(
LENGTH_UNIT()
NAMED_UNIT(*)
SI_UNIT(.MILLI.,.METRE.)
);
#1115=(
LENGTH_UNIT()
NAMED_UNIT(*)
SI_UNIT($,.METRE.)
);
#1116=(
NAMED_UNIT(*)
PLANE_ANGLE_UNIT()
SI_UNIT($,.RADIAN.)
);
#1117=(
NAMED_UNIT(*)
SI_UNIT($,.STERADIAN.)
SOLID_ANGLE_UNIT()
);
#1118=SHAPE_DEFINITION_REPRESENTATION(#1119,#1120);
#1119=PRODUCT_DEFINITION_SHAPE('',$,#1122);
#1120=SHAPE_REPRESENTATION('',(#682),#1112);
#1121=PRODUCT_DEFINITION_CONTEXT('part definition',#1126,'design');
#1122=PRODUCT_DEFINITION('2026-09-29-23-12-29-956','Top case',#1123,#1121);
#1123=PRODUCT_DEFINITION_FORMATION('',$,#1128);
#1124=PRODUCT_RELATED_PRODUCT_CATEGORY('Top case','Top case',(#1128));
#1125=APPLICATION_PROTOCOL_DEFINITION('international standard',
'automotive_design',2009,#1126);
#1126=APPLICATION_CONTEXT(
'Core Data for Automotive Mechanical Design Process');
#1127=PRODUCT_CONTEXT('part definition',#1126,'mechanical');
#1128=PRODUCT('2026-09-29-23-12-29-956','Top case',$,(#1127));
#1129=PRESENTATION_STYLE_ASSIGNMENT((#1130));
#1130=SURFACE_STYLE_USAGE(.BOTH.,#1131);
#1131=SURFACE_SIDE_STYLE('',(#1132));
#1132=SURFACE_STYLE_FILL_AREA(#1133);
#1133=FILL_AREA_STYLE('Steel - Satin',(#1134));
#1134=FILL_AREA_STYLE_COLOUR('Steel - Satin',#1135);
#1135=COLOUR_RGB('Steel - Satin',0.627450980392157,0.627450980392157,0.627450980392157);
ENDSEC;
END-ISO-10303-21;
